<svg width="16" height="16" viewBox="0 0 16 16" fill="none" xmlns="http://www.w3.org/2000/svg">
<path d="M12.9999 6.83211L6.05548 6.83211L7.59049 5.2971C7.98101 4.90657 7.98101 4.27341 7.59049 3.88288L7.35157 3.64397C6.96105 3.25344 6.32788 3.25344 5.93736 3.64397L2.55473 7.0266C2.5455 7.03516 2.53639 7.04394 2.52742 7.05291L2.2885 7.29183C1.89797 7.68235 1.89797 8.31552 2.2885 8.70604L5.93965 12.3572C6.33017 12.7477 6.96334 12.7477 7.35386 12.3572L7.59278 12.1183C7.9833 11.7278 7.9833 11.0946 7.59278 10.7041L6.0587 9.16998L12.9999 9.16998C13.5522 9.16998 13.9999 8.72227 13.9999 8.16998V7.83211C13.9999 7.27982 13.5522 6.83211 12.9999 6.83211Z" fill="#889397"/>
</svg>
