<svg width="128" height="128" viewBox="0 0 128 128" fill="none" xmlns="http://www.w3.org/2000/svg">
<rect width="128" height="128" fill="#48D0A8"/>
<g clip-path="url(#clip0_282_1936)">
<path d="M98.3266 95.1832L80.2563 77.4017C84.9883 72.2605 87.8958 65.4612 87.8958 57.9792C87.8935 41.974 74.7105 29.001 58.4471 29.001C42.1837 29.001 29.0007 41.974 29.0007 57.9792C29.0007 73.9845 42.1837 86.9575 58.4471 86.9575C65.474 86.9575 71.9189 84.5269 76.9813 80.4862L95.1217 98.3378C96.0056 99.2086 97.4406 99.2086 98.3245 98.3378C99.2105 97.4672 99.2105 96.0539 98.3266 95.1832ZM58.4471 82.499C44.6865 82.499 33.5314 71.5211 33.5314 57.9792C33.5314 44.4373 44.6865 33.4594 58.4471 33.4594C72.2078 33.4594 83.3628 44.4373 83.3628 57.9792C83.3628 71.5211 72.2078 82.499 58.4471 82.499Z" fill="black"/>
</g>
<defs>
<clipPath id="clip0_282_1936">
<rect width="69.99" height="69.99" fill="white" transform="translate(29 29)"/>
</clipPath>
</defs>
</svg>
