<svg xmlns="http://www.w3.org/2000/svg" version="1.1" xmlns:xlink="http://www.w3.org/1999/xlink" xmlns:svgjs="http://svgjs.dev/svgjs" width="1440" height="560" preserveAspectRatio="none" viewBox="0 0 1440 560"><g mask="url(&quot;#SvgjsMask1005&quot;)" fill="none"><path d="M546.7 70.85a35.32 35.32 0 1 0-40.27 58.04z" fill="rgba(18, 141, 161, 1)"></path><path d="M297.66 445.87 a35.24 35.24 0 1 0 70.48 0 a35.24 35.24 0 1 0 -70.48 0z" fill="rgba(244, 70, 91, 1)"></path><path d="M790.44 236.43L801.81 236.43L801.81 256.36L790.44 256.36z" stroke="rgba(5, 253, 180, 1)"></path><path d="M319.95 254.66 a4.84 4.84 0 1 0 9.68 0 a4.84 4.84 0 1 0 -9.68 0z" stroke="rgba(18, 141, 161, 1)"></path><path d="M1370.47 131.65L1414.62 131.65L1414.62 149.64L1370.47 149.64z" stroke="rgba(244, 70, 91, 1)"></path><path d="M1031.41 401.21 a39.31 39.31 0 1 0 78.62 0 a39.31 39.31 0 1 0 -78.62 0z" fill="rgba(244, 70, 91, 1)"></path><path d="M1097.98 11.18L1149.88 11.18L1149.88 28.29L1097.98 28.29z" stroke="rgba(244, 70, 91, 1)"></path><path d="M1123.56 124.9L1160.21 124.9L1160.21 161.55L1123.56 161.55z" fill="rgba(244, 70, 91, 1)"></path><path d="M1073.06 169.97L1107.3 169.97L1107.3 195.87L1073.06 195.87z" fill="rgba(18, 141, 161, 1)"></path><path d="M147.36 89.93L154.49 89.93L154.49 97.06L147.36 97.06z" fill="rgba(244, 70, 91, 1)"></path><path d="M1304.5 39.89 a41.02 41.02 0 1 0 82.04 0 a41.02 41.02 0 1 0 -82.04 0z" stroke="rgba(5, 253, 180, 1)"></path><path d="M21.86 294.45a30 30 0 1 0 58.65 12.66z" fill="rgba(5, 253, 180, 1)"></path><path d="M1275.88 544.19a44.72 44.72 0 1 0 81.55-36.73z" stroke="rgba(244, 70, 91, 1)"></path><path d="M994.42 475.6L1045.8 475.6L1045.8 501.49L994.42 501.49z" fill="rgba(244, 70, 91, 1)"></path><path d="M842.91 160.22L860.07 160.22L860.07 170.42L842.91 170.42z" stroke="rgba(244, 70, 91, 1)"></path><path d="M602.66 289.89L658.23 289.89L658.23 345.46L602.66 345.46z" stroke="rgba(18, 141, 161, 1)"></path><path d="M747.92 407.7L776.61 407.7L776.61 447.17L747.92 447.17z" fill="rgba(244, 70, 91, 1)"></path><path d="M1081.68 361.19L1089.65 361.19L1089.65 369.16L1081.68 369.16z" stroke="rgba(5, 253, 180, 1)"></path><path d="M368.95 131.84a14.18 14.18 0 1 0-27.08 8.42z" stroke="rgba(18, 141, 161, 1)"></path><path d="M1211.17 435.6 a40.07 40.07 0 1 0 80.14 0 a40.07 40.07 0 1 0 -80.14 0z" stroke="rgba(244, 70, 91, 1)"></path><path d="M1311.43 132.18L1348.82 132.18L1348.82 158.32L1311.43 158.32z" stroke="rgba(18, 141, 161, 1)"></path><path d="M544.41 490.26a32.72 32.72 0 1 0-19.24 62.54z" fill="rgba(5, 253, 180, 1)"></path><path d="M226.64 301.63 a17 17 0 1 0 34 0 a17 17 0 1 0 -34 0z" fill="rgba(5, 253, 180, 1)"></path><path d="M1405.67 189.57L1409.96 189.57L1409.96 195.28L1405.67 195.28z" stroke="rgba(18, 141, 161, 1)"></path><path d="M1006.19 480.74 a19.4 19.4 0 1 0 38.8 0 a19.4 19.4 0 1 0 -38.8 0z" fill="rgba(5, 253, 180, 1)"></path><path d="M555.72 349.91L586.97 349.91L586.97 381.16L555.72 381.16z" stroke="rgba(244, 70, 91, 1)"></path><path d="M583.81 525.32L589.19 525.32L589.19 549.2L583.81 549.2z" fill="rgba(18, 141, 161, 1)"></path><path d="M1027.06 2.13 a37.18 37.18 0 1 0 74.36 0 a37.18 37.18 0 1 0 -74.36 0z" stroke="rgba(244, 70, 91, 1)"></path><path d="M648.25 506.59a10.91 10.91 0 1 0-11.88 18.31z" stroke="rgba(18, 141, 161, 1)"></path><path d="M1371.49 391.5 a34.05 34.05 0 1 0 68.1 0 a34.05 34.05 0 1 0 -68.1 0z" stroke="rgba(18, 141, 161, 1)"></path><path d="M106.95 603.79a55.95 55.95 0 1 0 23.3-109.44z" fill="rgba(244, 70, 91, 1)"></path><path d="M114.3 465.42a2.16 2.16 0 1 0-4.15 1.21z" stroke="rgba(18, 141, 161, 1)"></path><path d="M162.66 159.81L190.81 159.81L190.81 187.96L162.66 187.96z" stroke="rgba(5, 253, 180, 1)"></path></g><defs><mask id="SvgjsMask1005"><rect width="1440" height="560" fill="#ffffff"></rect></mask></defs></svg>