<svg width="19" height="22" viewBox="0 0 19 22" fill="none" xmlns="http://www.w3.org/2000/svg">
<path d="M16.6275 8.2775L3.75 0.8375C3.3819 0.619715 2.96269 0.50327 2.535 0.5C1.86268 0.5 1.21789 0.76708 0.742485 1.24248C0.26708 1.71789 0 2.36268 0 3.035V19.0025C8.55053e-05 19.4487 0.119686 19.8867 0.346367 20.2709C0.573047 20.6552 0.898531 20.9718 1.28898 21.1877C1.67942 21.4035 2.12057 21.5109 2.56656 21.4986C3.01255 21.4862 3.44709 21.3546 3.825 21.1175L16.7175 12.9725C17.1184 12.7216 17.4474 12.3712 17.6726 11.9553C17.8977 11.5394 18.0113 11.0723 18.0022 10.5995C17.9932 10.1267 17.8618 9.66428 17.6208 9.25735C17.3799 8.85042 17.0377 8.51283 16.6275 8.2775Z" fill="#0C3440"/>
</svg>
