<?xml version="1.0" standalone="no"?>
<!DOCTYPE svg PUBLIC "-//W3C//DTD SVG 20010904//EN"
 "http://www.w3.org/TR/2001/REC-SVG-20010904/DTD/svg10.dtd">
<svg version="1.0" xmlns="http://www.w3.org/2000/svg"
 width="700.000000pt" height="700.000000pt" viewBox="0 0 700.000000 700.000000"
 preserveAspectRatio="xMidYMid meet">
<metadata>
Created by potrace 1.14, written by Peter Selinger 2001-2017
</metadata>
<g transform="translate(0.000000,700.000000) scale(0.100000,-0.100000)"
fill="#000000" stroke="none">
<path d="M2920 5390 c-692 -126 -1209 -647 -1315 -1326 -25 -158 -16 -428 18
-574 107 -449 382 -815 784 -1041 159 -89 369 -160 563 -189 124 -19 368 -14
504 10 218 37 441 126 624 248 45 30 85 59 88 63 3 5 12 9 19 9 8 0 180 -163
382 -362 715 -703 644 -638 692 -638 79 0 131 47 131 117 -1 21 -6 48 -13 59
-7 12 -201 207 -432 434 -231 227 -455 447 -498 489 l-78 78 46 54 c310 360
438 873 335 1340 -134 612 -617 1084 -1247 1220 -144 32 -456 36 -603 9z m539
-245 c544 -106 971 -531 1078 -1073 23 -118 23 -365 0 -484 -95 -481 -440
-873 -905 -1028 -160 -53 -240 -65 -437 -65 -152 0 -196 4 -284 23 -482 108
-862 448 -1011 901 -45 138 -63 256 -63 411 0 218 42 397 139 590 200 400 590
677 1040 739 96 14 343 6 443 -14z"/>
</g>
</svg>
