<svg width="102" height="19" fill="none" xmlns="http://www.w3.org/2000/svg"><g fill="#1B2528"><path d="M14.624 6.525h-2.582a3.947 3.947 0 00-.554-1.457A4.076 4.076 0 0010.494 4a4.278 4.278 0 00-1.316-.662 5.138 5.138 0 00-1.53-.223c-.977 0-1.852.245-2.624.736-.767.491-1.374 1.212-1.821 2.16-.441.95-.662 2.108-.662 3.477 0 1.379.22 2.543.662 3.492.447.95 1.057 1.667 1.829 2.152.772.486 1.642.728 2.607.728a5.29 5.29 0 001.523-.215 4.385 4.385 0 001.316-.654 3.961 3.961 0 001.564-2.491l2.582.008a6.912 6.912 0 01-.803 2.301 6.35 6.35 0 01-1.514 1.805 6.848 6.848 0 01-2.102 1.166c-.79.276-1.65.414-2.582.414-1.468 0-2.776-.347-3.923-1.043-1.148-.7-2.053-1.702-2.715-3.004C.328 12.845 0 11.292 0 9.487c0-1.81.331-3.362.993-4.659.662-1.302 1.567-2.3 2.715-2.996C4.855 1.132 6.16.781 7.623.781c.899 0 1.738.13 2.516.389a6.642 6.642 0 012.11 1.125A6.192 6.192 0 0113.797 4.1c.408.706.684 1.514.827 2.425zM22.022 5.25v1.986h-6.944V5.25h6.944zM16.94 2.204h2.475V14.23c0 .48.071.841.215 1.084.143.237.328.4.554.489.232.082.483.124.753.124.2 0 .373-.014.522-.042.149-.027.265-.05.348-.066l.446 2.044c-.143.056-.347.11-.612.166-.265.06-.596.094-.993.1a4.357 4.357 0 01-1.821-.349 3.123 3.123 0 01-1.366-1.125c-.347-.508-.521-1.145-.521-1.912V2.204zM23.36 17.963V5.25h2.393v2.02h.132a3.073 3.073 0 011.225-1.614 3.505 3.505 0 012.003-.596 10.568 10.568 0 011.05.058v2.367a4.437 4.437 0 00-.529-.091 5.054 5.054 0 00-.761-.058c-.585 0-1.107.124-1.565.372a2.768 2.768 0 00-1.473 2.491v7.764h-2.474zM33.382 1.013v16.95h-2.475V1.013h2.475zM42.803 9.728v2.143h-7.515V9.728h7.515zM44.9 17.963V1.013h10.512v2.201h-7.954V8.38h7.2v2.193h-7.2v7.39h-2.557zM61.928 17.963V1.013h6.042c1.319 0 2.411.24 3.277.72.867.48 1.515 1.136 1.945 1.97.43.827.646 1.76.646 2.797 0 1.043-.218 1.98-.654 2.814-.43.828-1.081 1.484-1.953 1.97-.866.48-1.956.72-3.27.72h-4.154V9.835h3.923c.833 0 1.509-.143 2.028-.43.518-.293.899-.69 1.142-1.192.242-.502.364-1.073.364-1.713 0-.64-.121-1.208-.364-1.705-.243-.497-.627-.886-1.15-1.167-.52-.281-1.204-.422-2.053-.422h-3.211v14.757h-2.558zM77.714 1.013v16.95h-2.475V1.013h2.475zM87.697 12.69V5.25h2.483v12.713h-2.433V15.76h-.132c-.293.679-.762 1.244-1.407 1.697-.64.447-1.438.67-2.392.67-.817 0-1.54-.18-2.169-.538-.623-.364-1.114-.902-1.473-1.614-.353-.712-.53-1.592-.53-2.64V5.25h2.475v7.788c0 .866.24 1.556.72 2.07.48.512 1.104.769 1.87.769.464 0 .925-.116 1.383-.348a2.912 2.912 0 001.15-1.05c.31-.47.46-1.066.455-1.788zM101.633 8.354l-2.243.397a2.656 2.656 0 00-.447-.82 2.211 2.211 0 00-.81-.637c-.343-.165-.77-.248-1.284-.248-.7 0-1.285.157-1.754.472-.47.309-.704.709-.704 1.2 0 .425.157.767.472 1.026.314.26.822.472 1.523.638l2.02.463c1.169.27 2.041.687 2.615 1.25.573.563.86 1.294.86 2.193 0 .761-.22 1.44-.662 2.036-.436.59-1.045 1.054-1.829 1.39-.778.337-1.68.505-2.706.505-1.424 0-2.585-.303-3.485-.91-.899-.613-1.45-1.482-1.655-2.607l2.392-.364c.149.623.455 1.095.919 1.415.463.314 1.067.472 1.812.472.811 0 1.46-.169 1.945-.505.486-.342.728-.759.728-1.25 0-.397-.149-.731-.447-1.001-.292-.27-.742-.475-1.349-.613l-2.151-.472c-1.187-.27-2.064-.7-2.632-1.29-.563-.591-.844-1.339-.844-2.244 0-.75.21-1.407.629-1.97.419-.562.998-1 1.738-1.315.739-.32 1.586-.48 2.54-.48 1.374 0 2.456.298 3.245.893.789.59 1.31 1.383 1.564 2.376z"/></g></svg>