<svg width="80" height="80" viewBox="0 0 122 122" fill="none" xmlns="http://www.w3.org/2000/svg"><path d="M72.953 79.957l2.998 2.999 3.505 3.486 1.35 1.36 6.994-6.998-7.842-7.853-7.005 7.006z" fill="#5D6D7E"/><path d="M94.931 80.758l24.134 24.133a9.952 9.952 0 012.935 7.087c0 2.769-1.119 5.28-2.935 7.098a9.994 9.994 0 01-7.086 2.924 9.991 9.991 0 01-7.088-2.93L80.758 94.934l14.173-14.176z" fill="#FF8E31"/><path d="M91.6 84.094l1.962-1.965 24.136 24.136a8.02 8.02 0 012.361 5.712 8.062 8.062 0 01-2.361 5.724 1.418 1.418 0 01-.983.401 1.4 1.4 0 01-.987-.404 1.39 1.39 0 010-1.958 5.286 5.286 0 001.556-3.766 5.24 5.24 0 00-1.549-3.746L91.601 84.094z" fill="#FECE59"/><path d="M80.757 94.934l14.174-14.177-1.057-1.06a3.479 3.479 0 00-2.48-1.03c-.976 0-1.85.388-2.483 1.025l-9.217 9.222a3.478 3.478 0 00-1.028 2.48c0 .963.394 1.849 1.028 2.473l1.063 1.067z" fill="#34495E"/><path fill-rule="evenodd" clip-rule="evenodd" d="M45.314.001C20.288.001 0 20.291 0 45.312 0 70.34 20.288 90.628 45.314 90.633c25.026-.005 45.315-20.292 45.315-45.32C90.63 20.292 70.342 0 45.314 0zm40.408 45.31c0 22.322-18.097 40.412-40.408 40.412-22.315 0-40.41-18.09-40.41-40.41C4.904 23.001 23 4.906 45.314 4.906c22.312 0 40.408 18.096 40.408 40.405z" fill="#34495E"/><path d="M46.291 14.243a3.293 3.293 0 00-2.918-1.46c-5.132.313-9.981 1.758-14.413 4.33a3.295 3.295 0 00-1.186 4.492c.909 1.548 2.922 2.099 4.478 1.178a25.977 25.977 0 0111.506-3.448 3.257 3.257 0 003.076-3.449 3.093 3.093 0 00-.543-1.643zM25.244 25.02a3.371 3.371 0 00-.652-.71 3.265 3.265 0 00-4.609.478 32.459 32.459 0 00-6.67 14.294 32.433 32.433 0 001.816 18.467 3.282 3.282 0 004.287 1.789 3.27 3.27 0 001.79-4.276 25.812 25.812 0 01-1.433-14.735 25.657 25.657 0 015.304-11.407 3.283 3.283 0 00.166-3.9z" fill="#fff"/><defs><clipPath id="prefix__clip0_85_1379"><path fill="#fff" d="M0 0h122v122H0z"/></clipPath></defs></svg>