<?xml version="1.0" encoding="UTF-8"?>
<svg xmlns="http://www.w3.org/2000/svg" viewBox="0 0 108.13 118.06">
  <defs>
    <style>
      .cls-1 {
        isolation: isolate;
      }

      .cls-2 {
        fill: #05fdb4;
        fill-rule: evenodd;
      }

      .cls-3 {
        mix-blend-mode: multiply;
      }
    </style>
  </defs>
  <g class="cls-1">
    <g id="Layer_2" data-name="Layer 2">
      <g id="Layer_1-2" data-name="Layer 1">
        <g class="cls-3">
          <path class="cls-2" d="m98.72,5.2c.03-.2.05-.4.08-.6.08-.13.18-.22.31-.29.31-.16.73-.05.97-.39,1.01-.37,1.56-1.3,2.34-1.95.21-.02.41-.03.62-.05.44-.42.88-.84,1.33-1.26.31-.1.35-.37.39-.64.07.01.15,0,.22-.03.83.05,1.37.72,2.11.96.14.05.27.12.39.21.36.29.66.63.64,1.14-.06.5-.48.76-.74,1.13-.36.22-.57.78-1.15.48-.41-.61-.08-1.68-1.18-1.9-.33,1.09.52,1.8.81,2.67-.27,1.94-.47,2.11-1.89,1.37.1,1.26.3,2.42-.65,3.5-.97,1.11-2.52,1.24-3.07-.12-.39-.96-1-1.95-.75-3.1.53-.94-.97-.45-.8-1.14Z"/>
          <path class="cls-2" d="m99.1,4.59c0-.42.24-.64.65-.68.11,0,.22.01.34.02-.05.64-.5.68-.99.66Z"/>
          <path class="cls-2" d="m94.8,31.58c-2.45,2.03-4.15,4.68-5.94,7.25.08.4.02.87-.28,1.04-1.16.66-1.64,2.11-2.99,2.52-.25.04-.49,0-.72-.11-.82-1.34-.74-1.57,1.07-2.85.22-.2.47-.37.61-.64.3-.67.57-1.34,1.12-1.89.49-.49-.06-.55-.4-.64-.81-.56-.45-1.1.09-1.54.41-.34.87-.62,1.03-1.17.21-.41.55-.7.89-.99.52-.42.95-.95,1.47-1.37.58-.44,1.21-.73,1.96-.6.39-.4.52,1.16.99.12-.6-1.42-.49-2.87-.24-4.33.08-.39.24-.76.42-1.12.32-.44.49-1.1,1.27-.91-.24.6-.49,1.19-.72,1.79-.35.88-.65,2.06,0,2.61,1.12.96.81,1.81.39,2.83Z"/>
          <path class="cls-2" d="m95.15,24.35c-.52.14-.58.73-.98.99-.06-.06-.11-.11-.17-.17-.27-.65,0-1.24.18-1.84.93-.98,1.97-1.92,1.72-3.49.18-.32.04-.75.35-1.03.77-.53,1.51-1.17,2.5-.43-.03.67-.04,1.33-.36,1.95-1.54.97-2.46,2.43-3.24,4.01Z"/>
          <path class="cls-2" d="m98.38,20.33c.05-.65,0-1.33.37-1.92.03-.07.06-.14.08-.21.51-.38.51-1.35,1.44-1.22.06.05.11.1.16.16-.26.76-.43,1.57-1.25,1.97-.57.28-.37.83-.45,1.28-.12-.02-.24-.04-.36-.06Z"/>
          <path class="cls-2" d="m87.52,17.04c-.56-.48-.38-.77.1-1.27,1.77-1.8,3.45-3.69,5.16-5.56.06-.07.06-.21.09-.31.97.01,1.29-.92,1.94-1.36.89.65.22,1.24-.06,1.84-.69.67-1.87.84-2.08,2.01.32.84,1.17,1.27,1.56,2.04.26.5.83.99.01,1.5-.68.15-1.15-.87-1.9-.34-.22.18-.45.31-.74.32-.26-.04-.52-.05-.78,0-.14,0-.27-.03-.39-.08-1.03.01-1.34.97-1.99,1.49-.3.22-.58.21-.84-.07-.03-.07-.06-.15-.09-.22Z"/>
          <path class="cls-2" d="m94.48,10.18c.2-.53.72-.99.33-1.64.91-1.42,1.93-2.72,3.63-3.26.3.31.35.69.33,1.09-.01.38.08.75.18,1.11.08.26.1.53.06.8-.2,1.28-3.34,2.59-4.55,1.9Z"/>
          <path class="cls-2" d="m98.44,6.56c0-.42,0-.85.01-1.27.08-.05.17-.08.26-.08q1.31.35,1.04,1.04c-.36.43-.75.73-1.31.31Z"/>
          <path class="cls-2" d="m98.44,6.56c.44-.1.87-.21,1.31-.31.23.92.49,1.82.67,2.75.22,1.18,1.53.64,1.98,1.52.38-.59.18-1.21.8-1.61.43-.28.98-1.02.27-1.79-.19-.2-.08-.74-.03-1.11.07-.51.43-.72.93-.74.89-.04.26.76.57,1.07.64-.43.3-1.26.75-1.74.14-.11.28-.11.42.01.1,1.39.08,2.74-.95,3.85-.36.39-.3.92-.39,1.4-.22,1.17-.72,2.18-1.7,2.91-.78.36-1.32,1.26-2.36,1-.24-.27-.26-.57-.17-.9.04-.32.73-.74-.17-.91-.63-.12-.93-.51-.74-1.06-.8.73-1.23,1.6-.12,2.53.04.16.03.31-.05.46-.18.17-.39.26-.62.31-.82.09-1.57.37-2.28.8-.37.23-.78.48-1.17.06-.35-.38-.5-.87-.17-1.33.39-.55.62-1.12.49-2.04-.36.84-.91,1.19-1.59,1.34-.73.16-1.4.02-1.94-.54.15-1.39,1.3-1.78,2.31-2.3.77.19,1.5.25,1.83-.69.16-.43.58-.64.88-.56,2.27.62,1.48-.76,1.2-1.8-.06-.21-.16-.4.05-.58Z"/>
          <path class="cls-2" d="m105.97,4.57c-.1,0-.19,0-.29.03-1.13-.55-1.03-1.73-1.35-2.69-.09-.27.01-.42.22-.51.31-.14.66-.17.93.06.76.65,1.29,1.4.86,2.47-.07.11-.14.23-.21.34.05.15,0,.25-.16.3Z"/>
          <path class="cls-2" d="m102.76,13.17c-.01.43-.03.86-.04,1.29-.18.43-.53.63-.98.67-.26.69-.42,1.43-1,1.97-.1.01-.2.02-.3.04l-.07-.07c-.16-.18-.27-.39-.3-.64-.02-.24,0-.47.06-.7.15-.43.19-.91.47-1.29.73-.35,1.29-.94,1.96-1.37.07.04.13.07.19.11Z"/>
          <path class="cls-2" d="m89.54,32.89c-.32.23-.64.46-.96.69-.13.1-.27.13-.43.08-.31-.14-.5-.4-.69-.67q-1.25-1.74-3.17-.75c-.59.31-1.23.41-1.88.46-.77-.03-1.35.65-2.12.59-.98-1.59-1.03-3.11.27-4.57.25-.29.44-.67.91-.53.38.12.46.46.43.79-.1,1.17.18,1.67,1.31.79.17-.14.38-.29.59-.24,1.58.37,1.12-.6.92-1.39-.07-.26-.15-.52-.15-.8-.03-.99,1.18-1.24,1.29-2.15.78-.68,1.75-.44,2.63-.44.62,0,1.18.51,1.17,1.16-.02.98-1.11.4-1.41.95-.07-.04-.01-.06.03-.08.53-.17,1.06-.38,1.35.36.51,1.48-.9,1.79-1.57,2.55-.51-.01-.67-.71-1.24-.63.82-.1.35,1.47,1.41,1.07.32-.04.59.08.84.25,1.27.62.64,1.6.48,2.5Z"/>
          <path class="cls-2" d="m89.54,32.89c-.57-.67.4-1.77-.66-2.3-.03-2.04.6-2.42,3.19-1.92.8.22,1.19,1.01,1.88,1.4.48.28.22.61-.12.86-.34,1.01-.66-.11-.99,0-.95-.65-1.79-.99-1.98.66-.44.44-.88.87-1.32,1.31Z"/>
          <path class="cls-2" d="m88.22,33.55c.12,0,.24.02.36.02.25.69.07,1.15-.69,1.31-.77.16-.94.62-.66,1.3-.03.07-.07.13-.1.2-.62.69-1.65.69-2.28,1.38-.29.23-.52.63-1,.41-.1-.13-.17-.27-.21-.43-.14-1.04.76-1.33,1.33-1.86.59-1.01.93-2.25,2.31-2.55.35-.07.66.03.94.23Z"/>
          <path class="cls-2" d="m93.83,30.93c0-1.11-1.32-1.14-1.65-1.98,0-.07,0-.14,0-.21.14-.59.67-1.07.53-1.75-.01-.4.02-.77.49-.9.25-.03.46.03.63.22-.05.63-.03,1.28-.16,1.9-.13.61-.26,1.05.43,1.49.66.42.54.97-.26,1.23Z"/>
          <path class="cls-2" d="m90.86,31.58c-.3-.65-.65-1.33.28-1.76,1.13-.53,1.08.82,1.7,1.1-.78-.14-1.39.23-1.98.66Z"/>
          <path class="cls-2" d="m93.83,26.32c-.22,0-.44,0-.66,0-.32-.96.24-1.05.96-1l.04.03c-.11.33-.23.65-.34.98Z"/>
          <path class="cls-2" d="m92.18,12.48c1.27.21,2.57.66,3.19-1.13.21-.6.57-.22.74.21.32.84.09,1.65-.48,2.2-.44.42-.22.72-.07.98.28.49.5.03.75-.13.75-.49,1.56-.77,2.46-.8-.26.8-.1,1.55.22,2.3.02.44-.78.9.14,1.35.29.14-.08.68-.36.95h0c-1.02-.36-1.69.67-2.62.67-.18-.18-.2-.39-.12-.62.83-.46.19-1.41.66-1.99-.25-.1-.39.11-.57.2-.47.27-.94.44-1.47.16-.13-.08-.24-.17-.34-.27-.16-.24-.35-.47-.14-.78.22-1.25-.88-1.75-1.47-2.53-.19-.25-.84-.17-.51-.77Z"/>
          <path class="cls-2" d="m96.14,19.73c.5,1.69-.4,2.73-1.65,3.62-.97.67-2.27.37-3.22,1.11-.74-.24-.58-.96-.8-1.48-1.5-1.93-.3-3.36.87-4.81.09-.13.22-.21.37-.24.4-.02.75.1,1.1.29.13.09.23.2.32.32.59,1.46,1.94.98,3.02,1.19Z"/>
          <path class="cls-2" d="m91.19,24.34c.89-1.03,1.95-1.48,3.29-.99-.12.65-.24,1.31-.36,1.96-.4.26-.94.38-.96,1-.35.22-.02.44,0,.66-.4.62-1.03,1.13-.99,1.97h0c-1.36.03-3.01-.53-3.29,1.64-.22-.11-.44-.21-.66-.32-.3-.13-.48-.32-.32-.67.45-.41.41-1.2,1.23-1.37.59-.12.17-.6.08-.92.13-.17.43-.43.46-.37.36.75.36-.04.51-.11.36-.36.93-.23,1.28-.51.34-.27.8-.77-.17-.88-.14-.05-.25-.14-.31-.28-.04-.15-.06-.29-.04-.44.04-.15.12-.27.24-.37Z"/>
          <path class="cls-2" d="m96.14,19.73c-1.53,1.18-2.89.64-3.3-1.32.64-.76,1.69-.53,2.45-1,.88-.17,1.37-.01.84,1,0,.22,0,.44,0,.66.04.22.33.44,0,.66Z"/>
          <path class="cls-2" d="m98.76,18.41c.66-.76-1.04-1.53,0-2.29.62-.32,1.13-.1,1.61.3,0,.22,0,.43,0,.65-.82.11-.58,1.49-1.61,1.35Z"/>
          <path class="cls-2" d="m62.52,48.69c.02-.21.03-.41.05-.62,1.31-.39,1.43-1.83,2.3-2.61.81.95,1.84,1.78,1.58,3.27.56,0,.77-.51,1.16-.76.31-.2.61-.54,1.01-.34.54.28.22.74.16,1.14-.33,1.05-.29,2.32-2.09,2.05-.85-.13-.61.78-.51,1.46.84-.17,1.01-.99,1.53-1.4,1.35-1.04,2.12-.89,2.83.72.09.2.11.42.32.54,1.91.64,2.01.9,1.13,2.65-.46.27-.93.27-1.4.06-1.24-.43-2.15-1.85-3.77-1.17-.47.2-1.06.09-1.57-.14-.4-.14-.57-.65-1.06-.68-.01.47.37.78.46,1.19-.14,1.87-1.88,1.22-2.86,1.63-.45.19-.83.2-1.11.69-.23.4-.59.79-1.18.6-.98-.77.14-1.55-.01-2.33.75-.53.82-1.61,1.67-2.07.22.11.28.3.27.53.17-.12.12-.34.23-.49.19-.28.27-.58.13-.91-.04-.36-.11-.73.06-1.08.04-.42.27-.64.68-.66.32.02.74.05.28-.4-.28-.27-.57-.46-.28-.87Z"/>
          <path class="cls-2" d="m68.47,48.7c.03-.26.05-.51.08-.83-1.09.36-1.48,1.83-3.04,1.6,1.51-1.67-.56-2.63-.65-4.01.08-.06.17-.09.27-.09,1.01-.13,1.75-.94,2.74-1.11.59.04.92.8,1.71.48.5-.2.77.39.74.93-.22.77-.94,1.32-.81,2.25.06.45-.34.77-.83.86-.07-.03-.14-.05-.21-.08Z"/>
          <path class="cls-2" d="m67.82,44.42c-.81.56-1.52,1.4-2.68.95.03-.54.78-.69.69-1.29.27-1.24,1.07-2.14,1.93-3.01.32.13.45.39.52.71.06.52-.22,1.05.14,1.56.52.74-.09.9-.6,1.09Z"/>
          <path class="cls-2" d="m68.13,41.8c-.12-.24-.25-.49-.37-.73,0-.09.03-.17.06-.26.47.03.61-.48.98-.61.85.98.37,1.4-.66,1.6Z"/>
          <path class="cls-2" d="m70.43,38.16c.34-.87.69-1.74,1.04-2.61,1.12-1.04,1.98-2.27,2.61-3.66.38-.51.75-1.03,1.12-1.55.43-.56.47-1.54,1.53-1.39.32-.23.64-.45.96-.68.05.05.11.11.16.16.21.51.26,1.05.41,1.57.41,1.37.03,1.91-1.39,2.14-.9.15-1.22.99-1.76,1.55.16.92.09,1.72-.89,2.18-.58.27-.88.8-1.1,1.38-.27.74-.78,1.17-1.58,1.24-.41.04-.82.03-1.11-.34Z"/>
          <path class="cls-2" d="m80,25.02c1.08-.29,1.08-1.85,2.31-1.98.42.63.27,1.35.32,2.04-.08.41-.26.72-.72.77-.42-.06-.83-.07-1.21.18-.36.14-.71.29-1.04-.06.01-.35-.01-.72.33-.96Z"/>
          <path class="cls-2" d="m79.67,25.97c.33-.1.66-.21.99-.31.23,1.38.08,1.54-1.44,1.5-.07-.06-.14-.13-.21-.2.02-.46.43-.66.66-.99Z"/>
          <path class="cls-2" d="m77.67,28.27c.42-.46.55-1.22,1.33-1.31l.06.04c.4,1.24.12,1.51-1.34,1.33l-.06-.06Z"/>
          <path class="cls-2" d="m82.61,23c.16-1.1.73-1.97,1.54-2.71.72-.66,1.37-1.39,1.2-2.49.73-.25,1.37-.75,2.18-.76l.06.08c.16,1.1-.83,1.48-1.36,2.16-.34.38-.53.87-.84,1.27-.5.48-.49,1.22-.85,1.76-.46.68-.92,1.49-1.93.69Z"/>
          <path class="cls-2" d="m91.85,18.09c-.11,0-.22,0-.32,0-.54-.09-.8-.49-1.01-.94-.14-.46-.37-.91.02-1.36.11,0,.22,0,.33,0,.22-.04.43-.23.66-.01.22-.11.44-.22.66-.33.87.11,1.55.64,2.3,1h0c.44.99-.2,1.27-.96,1.42-.36.07-.76-.1-1.1.16-.18.1-.36.23-.58.07Z"/>
          <path class="cls-2" d="m85.92,19.06c.56-.64,1.11-1.29,1.67-1.93.22.02.45.32.65-.03.14-.13.29-.13.43,0,.4.65.06,1.26-.12,1.88-.08.22-.17.44-.26.65,0,.05-.03.1-.03.16-.08.62.08,1.5-.73,1.59-.96.11-.93-.82-1.08-1.48-.05-.36-.41-.53-.52-.84Z"/>
          <path class="cls-2" d="m88.57,17.11c-.11,0-.23,0-.34-.01.34-.9,1.17-1.37,1.86-1.89.56-.42.34.32.44.57.11.44.22.88.33,1.32-.37.39-.83.42-1.31.29-.27-.26-.67-.12-.98-.29Z"/>
          <path class="cls-2" d="m94.48,16.44c-.92.03-1.78-.1-2.3-1,.12-.34-.21-1.22.71-.58.43.3.84.61,1.27.92.11.22.22.44.33.66Z"/>
          <path class="cls-2" d="m91.52,15.77c-.22.05-.43.35-.66.01.05-.24.05-.55.39-.48.11.02.17.31.26.47Z"/>
          <path class="cls-2" d="m99.42,13.48c-.49-.14-1.23-.07-1.03-.9.13-.51-.51-1.38.65-1.49.46-.05.31-.62.55-1.1.4.7-.04,1.99,1.52,1.56.49-.14.45.98-.37,1.28-.51.09-.8.6-1.32.66Z"/>
          <path class="cls-2" d="m100.38,16.41c-.57.07-1.11,0-1.61-.3-.77-.77-1.17-1.54,0-2.3.22,0,.44,0,.65,0,.26-.13.38.04.5.22.23.58.68,1.09.52,1.78-.02.2-.05.4-.07.61Z"/>
          <path class="cls-2" d="m102.73,12.5c-.01.21-.02.43-.04.64-.53.61-.81,1.58-1.93,1.35-.19-.14-.22-.32-.16-.53.05-.05.09-.1.14-.15.66-.44,1.32-.87,1.99-1.31Z"/>
          <path class="cls-2" d="m99.75,14.13c-.11-.11-.22-.21-.33-.32,0-.11,0-.22,0-.33.34-.42.38-1.43,1.32-.66,0,.33,0,.66,0,.99h0c-.27.29-.32,1.28-.99.32Z"/>
          <path class="cls-2" d="m99.75,14.13c.48.37.69-.12.99-.32,0,.23.01.45.02.68-.06.45.07.95-.32,1.32-.15-.6-.87-.95-.7-1.68Z"/>
          <path class="cls-2" d="m77.74,28.34c.78-.11,1.58-.2,1.34-1.33.93.02,1.68-.17,1.59-1.34.33-.08.65-1.21.99,0,.52.46.95,1,1.44,1.49.56.54.9.32,1.37.06.15-.04.3-.01.43.08-.15.59.65,1.01.41,1.48-.25.48.98,2.9-1.28,1.14-.28-.22-.52-.03-.66.23-.36.66-.86,1.07-1.57.57-.69-.48-.66-1.14-.22-1.82.05-.08-.08-.28-.13-.46-1.69,1.34-1.56,3.04-1.1,4.81-.06.86-.9,1.16-1.25,1.82-.89.72-1.64.24-2.39-.26-.53-.61-.99-1.33-1.96-1.22.59-.73,1.19-1.47,1.79-2.2.15-.18.32-.3.48,0,.12.25-.02,1.02.55.38.29-.32.9-.73.42-1.4-.44-.61-.52-1.3-.23-2.01Z"/>
          <path class="cls-2" d="m86.9,19.39c0,.06,0,.11,0,.16.1.55-.24,1.55.46,1.54.97-.02.21-.93.33-1.43.02-.09.13-.17.2-.25.62.02.92.39,1.04.94.08.48.07.96-.08,1.43-.37.51,1.03,1.01.01,1.52.38.2.87.17,1.14.57.58.76-.06,1.71.41,2.49.02.24-.04.45-.22.61-.06.92-.8-.22-.99.33-.37-.9-1.72.44-1.94-.98.75.32,1.41.11,2.13-.24-.87-1.77-2.37-.43-3.49-.75-.04.04-.11.1-.11.1-.68-.67-.79-.1-.96.42-.08.25-.28.45-.48.63-1.62.64-1.81.5-2.06-1.48-.23-.65-.23-1.31,0-1.96.1-.02.2-.03.29-.04,1.13.15,1.63-.48,1.76-1.48.08-.6.25-1.05.92-1.14.68-.1.58-1.47,1.61-1Z"/>
          <path class="cls-2" d="m79.01,34.87c-.01-.92.73-1.23,1.34-1.65.5-.63,1.21-.85,1.96-.98.11.1.15.22.11.36-.12.26-.35.42-.56.59-.13.15-.22.32-.2.52.78.68,1.05-.38,1.59-.47,1.36-.24,2.71-.34,4,.31-1.23.45-1.16,1.87-1.98,2.63-1.15.03-2.26.78-3.45.21q-.95-.59-2.11-.06c-.38-.17-.65-.45-.84-.81-.07-.25-.04-.47.15-.66Z"/>
          <path class="cls-2" d="m87.24,33.56c-1.43,0-2.85,0-4.28,0-.78.04-.64-.53-.66-.99,0-.11,0-.22,0-.32.92-.05,1.76-.08,2.44-.98.59-.78,1.95-.36,2.64.71.32.5.56,1.05.84,1.57-.33,0-.65,0-.98,0Z"/>
          <path class="cls-2" d="m87.91,29.6c.11.22.21.45.32.67-.29.25-.27,1.38-1.01.31-.31-.44.16-1.57-1.1-1.28-.15.03.11-.55.24-.81.12-.26.43-.48.54-.04.16.59,1.07.44,1.01,1.15Z"/>
          <path class="cls-2" d="m84.27,26.33c.06-.21.1-.42.18-.62.31-.79.75-1.15,1.47-.38.11.46.88,1.12-.41,1.11-.43,0-.54.46-.62.84-.1.01-.19.02-.29.02-.46-.2-.66-.5-.35-.97Z"/>
          <path class="cls-2" d="m81.97,36.19c1.1.45,2.19-.87,3.29,0-.42.56-1.5.6-1.34,1.64-.68.47-1.29.12-1.91-.16-.44-.48-.79-.97-.04-1.48Z"/>
          <path class="cls-2" d="m81.98,37.51c.65.11,1.3.22,1.95.32.01.12.03.25.04.37.08.14.07.28-.03.41-.41.28-.63.95-1.33.65-.42-.44-.84-.89-.77-1.58.05-.06.09-.12.14-.18Z"/>
          <path class="cls-2" d="m87.23,36.19c-.05.83-1.08.67-1.32,1.31-.43.4-.86.4-1.3.01.64-.9,1.71-.95,2.61-1.33Z"/>
          <path class="cls-2" d="m83.97,38.5c.09.11.19.21.28.32-.9.93-1.63,1.92-.96,3.31-.37.35-.7.79-1.32.65-.33-.93.47-1.75.23-2.67.04-.36.14-.69.46-.91.55,0,.73-.74,1.32-.69Z"/>
          <path class="cls-2" d="m92.18,28.95c-.75-1.2.12-1.58.99-1.97.16.91-.38,1.45-.99,1.97Z"/>
          <path class="cls-2" d="m82.61,40.14c.19.98-.15,1.82-.64,2.63-.1,0-.2,0-.31.02-.57.6-.75,1.72-1.97,1.42-.14-.1-.22-.24-.26-.4-.71,1.34-1.61.92-2.61.36-.47-.26-1,.45-1.56.17-.14-.06-.26-.15-.35-.28-.39-.77.33-1.18.58-1.74-.52-1.12.67-1.79.73-2.68.09-1.24.8-1.51,1.75-1.72.49-.11.82-.52,1.27-.73,1.26-.29,1.44.34,1.15,1.36-.18.49-.31,1.03.44,1.06,1.35.06.79.74.56,1.34.49-.07.29-1.33,1.23-.81Z"/>
          <path class="cls-2" d="m79.67,44.1c.93-.03,1.02-1.34,1.99-1.31.1.11.21.21.31.32.24.75-.32,1.15-.71,1.63-.1.1-.2.18-.32.26-.32.17-.52.43-.6.79-.17.44-.31.91-.8,1.11-.28.04-.51-.02-.68-.27-.05-.95-.44-2,.81-2.53Z"/>
          <path class="cls-2" d="m80.99,44.76c.33-.55.66-1.1.99-1.65.29.1.36.63.89.32.6-.35.96.03,1.08.65h0c-.79.21-1.2.83-1.61,1.46-.21.13-.44.16-.68.12-.44-.14-.67-.43-.66-.9Z"/>
          <path class="cls-2" d="m96.13,18.42c.14-.92-.44-.77-.99-.67-.5-.8.55-.82.66-1.31.52-.05.65-1.26,1.39-.52.48.49.22.85-.32,1.27-.3.23.88,1.57-.74,1.23Z"/>
          <path class="cls-2" d="m95.81,16.44c-.22.43-.44.87-.66,1.31-.62.74-1.53.48-2.31.67h0c-.21-.23-.47-.41-.66-.65.05-.49.27-.7.75-.44.99.53,1.39.03,1.56-.88.44.3.88.28,1.32,0Z"/>
          <path class="cls-2" d="m90.2,26.32c-.87-.66-.02-1.57-.33-2.31-.74-.72-.49-1.7-.66-2.57-.14-.39-.31-.76-.64-1.03.03-.51-.45-.68-.68-1.01.11-.11.21-.22.32-.33.69-.48.26-1.52,1-1.97.55,0,1.1,0,1.65,0,.22.33.44.66.66.99.03.32.18.87.08.92-2.14,1-1.54,2.49-.75,4.01-.45.66-.26,1.19.33,1.65,0,.11,0,.22,0,.33-.4.32-.49.84-.81,1.2-.06.04-.12.08-.18.12Z"/>
          <path class="cls-2" d="m91.3,20.41c.77.07,1.75-.24,1.77.8,0,.43-.28,1.18-.91,1.1-1.18-.14-.25-1.37-.86-1.91Z"/>
          <path class="cls-2" d="m91.19,24.67c-1.22-.32-1.34-.87-.33-1.65.11.44.22.88.33,1.32v.33Z"/>
          <path class="cls-2" d="m92.18,17.76c.42.01.64.23.66.65-.36,0-.75.05-.99-.33.11-.11.22-.22.33-.33Z"/>
          <path class="cls-2" d="m90.2,26.97c0-.22,0-.44,0-.66h0c.31-.36.38-.94.99-.99.31-.26.61-.52.94-.79.48,1.77-.04,2.67-1.93,2.44Z"/>
          <path class="cls-2" d="m91.19,25.33c-.22.44-.54.77-.99.99-.03-.71.14-1.27.99-1.31,0,.11,0,.22,0,.33Z"/>
          <path class="cls-2" d="m81.64,47.39c-.66.28-.76-.14-.64-.6.13-.48.41-.92.62-1.37.22,0,.44,0,.66-.01.2.02.23.21.32.34-.35.42-.83.75-.93,1.34-.01.1-.02.21-.03.31Z"/>
          <path class="cls-2" d="m26.02,61.19c.32,0,.64,0,.96,0,.09.05.18.07.28.07,1.49.7,1.6,2.23,2.13,3.51.02.16.02.32.02.49,0,.42-.04.83-.28,1.19-.18.19-.41.25-.66.2-.15-.06-.25-.17-.31-.32.06-.75-.25-1.41-.56-2.06-.22-.96-1.03-1.42-1.71-1.99-.26-.22-.74-.29-.49-.81.17-.18.37-.27.62-.27Z"/>
          <path class="cls-2" d="m54.67,63.85c1.2-2.63,2.4-5.25,3.61-7.88.51-.32.91-.72,1.01-1.34.11-.1.21-.1.31.01.26.77-.46,1.52-.02,2.29.27.47.29.92-.24,1.21-.36.2-.58.43-.55.85-.05.27-.14.59-.37.69-1.11.51-1.36,1.53-1.62,2.56-.52.55-.95,1.19-1.5,1.72-.24.09-.46.07-.65-.12Z"/>
          <path class="cls-2" d="m59.6,54.64c-.1,0-.21-.01-.31-.01.4-1.28,1.55-2.19,1.72-3.6.04-.35.52-.32.82-.42.22.34.28.69.05,1.05.18.6-.27.78-.66.99-.55.65-.58,1.73-1.62,1.99Z"/>
          <path class="cls-2" d="m62.52,48.69c-.03.74,1.94.06,1.02,1.41-.37.55-.79.69-1.03-.14-.1-.42-.88-.85,0-1.27Z"/>
          <path class="cls-2" d="m70.43,38.16c.45,0,.89,0,1.34,0,.44.28.16,1.11.9,1.17.14.05.26.12.36.23.4.6.07,1.15-.17,1.67-.47,1.02-.57,1.78.91,1.81.27,0,.49.2.7.37.23.2.36.47.58.67h0c.59.2,1.08.48,1.02,1.22-.03.32-.13.61-.42.8-.45-.13-.59.16-.69.52-.09.13-.19.23-.32.31-.42.19-.84.36-1.31.17-.11-.1-.21-.21-.29-.34-.26-1.04-1.33-.93-1.98-1.4-.48-.99-1.33-1.76-1.68-2.82.33-.49.67-.98,1.18-1.3-.52.21-.75.72-1.08,1.13-.05,1.3,1.07,1.98,1.58,2.99.79.52.47,1.19.27,1.86-.08.14-.19.24-.34.31-1.51,0-.97-1.02-.89-1.8-.03-.33-.31-.87-.41-.76-1.08,1.2-1.28-.37-1.89-.56.05-.33.86-.37.26-.99-.38-.4-.52-1.1.05-1.63.51-.41.96-.85.66-1.6.54-.68,1.09-1.36,1.63-2.04Z"/>
          <path class="cls-2" d="m65.19,53.31c.92-.03,1.8-.08,2.72-.3,1.19-.28,1.8.9,2.54,1.62.14.18.32.28.55.31.39.05.81.12.87.58.07.51-.34.96-.69,1-1.49.14-2.15,1.34-3.06,2.22-.6.59-1.26,1.03-2.13,1.08-.16,0-.31-.02-.46-.06-.43-.18-.82-.44-1.17-.76-.73-1.3.56-.9.83-1.18.4-.05.16-.18.15-.17-.44.33-.93.17-1.42.11-1.18-.41-1.2-1.18-.4-1.91.44-.4.71-.91,1.12-1.31.13-.1.27-.17.42-.2.1-.03.21-.03.32-.03-.07-.08-.18-.04-.28-.08-.14-.06-.25-.15-.34-.26-.08-.36.1-.56.42-.68Z"/>
          <path class="cls-2" d="m65.84,59.57c1.18-.3,2.15-.94,2.75-1.98.69-1.2,2.18-1.06,3-1.85.02-.9-1.56.17-1.14-1.1.55,0,1.09,0,1.64-.01.07.03.14.06.21.09.04.04.11.09.1.12-.26,1.56.51,2.49,1.88,3.04.29.42.45.88.28,1.39-.29.55-.72.88-1.37.82-.41-.09-.85-.27-1.15.18-.19.28.08.48.25.67.11.11.18.24.22.38-.22.8-.79,1.09-1.56,1.07-.08-.02-.15-.03-.23-.05-.07-.04-.14-.07-.21-.11-.33-.24-.55-.54-.59-.95.27-.69-.26-1.03-.63-1.44-.1-.31-.14-.62.04-.77-.62,1-1.75,1.27-2.96,1.27-.47,0-.88-.16-.54-.78Z"/>
          <path class="cls-2" d="m64.86,54.63c-.33.45-.32,1.05-.95,1.41-1.01.59-.63,1.18.29,1.55.13.42-.15.49-.45.56-.43-.04-.79.09-1.06.44-.13.08-.27.11-.41.08-.64-.29-.64-.78-.38-1.43-.58.63-1.23,1.04-1.74,1.6-.22.23-.5.24-.78.24-.26,0-.54.04-.76-.17-.32-.36-.84-.87.11-.92.83-.05.66-.64.88-1.05.9-.51,1.2-1.3,1.01-2.37,1.03.94,3.08.58,3.93-.58.11-.1.22-.11.34,0h0c.19.22.19.44,0,.67Z"/>
          <path class="cls-2" d="m70.45,52.66c-.16-.14-.49-.33-.47-.4.29-.86-.06-1.49-.83-1.67-.87-.2-1.26.62-1.71,1.19-.07.08-.11.19-.15.29-.24.52-.6,1.13-1.19.85-.7-.33-.48-1.2-.56-1.85-.07-.61.6-1.09.89-.92,1.85,1.07,1.55-.71,2.04-1.44h0c.43.41.81.91,1.54.62.99-.39,1.55.1,1.9.98.02,1.1-.6,1.8-1.46,2.35Z"/>
          <path class="cls-2" d="m70.45,52.66c.44-.77.88-1.54,1.32-2.3.47-.38.87-.16,1.27.13.1.11.17.23.21.38,0,.38.29.58.55.79.05.14.05.28.02.43-.15.39-.28.74-.05,1.19.33.65.11,1.21-.53,1.6-.43.15-.8,0-1.15-.23h-.01c.03-1.15.11-2.33-1.64-1.98Z"/>
          <path class="cls-2" d="m64.86,53.97c-.11,0-.23,0-.34,0-.14-.06-.41-.11-.41-.17,0-.64-1.38-1.12-.48-1.67.73-.45,1.28.44,1.56,1.17-.11.22-.22.44-.33.66Z"/>
          <path class="cls-2" d="m61.22,52.65c-.04-.5.44-.66.66-.99.31.13,1.15.09.54.63-.56.5-.62,1.16-1.2,2.12v-1.77Z"/>
          <path class="cls-2" d="m73.09,50.68c-.44-.11-.88-.22-1.32-.33-.59-.38-.91-1.17-1.96-.47-.9.6-1.44-.13-1.33-1.17.36-.22.96-.5.75-.89-.63-1.17.48-1.44.9-2.08.46.47-.33,1.69.99,1.65.87,1.04,1.64,2.19,2.94,2.77.09.14.12.29.08.45-.32.4-.67.39-1.04.08Z"/>
          <path class="cls-2" d="m67.41,45.24c.35.02.38.25.37.45,0,.13-.09.27-.14.4-.12-.16-.27-.31-.34-.49-.04-.1.07-.25.1-.36Z"/>
          <path class="cls-2" d="m72.75,39.49c-.34.02-.54.69-.92.33-.51-.48.05-1.09-.07-1.64.66-.17.86-.69,1.03-1.27.15-.51.36-1,.89-1.3.86-.48.83-.55.54-1.49-.08-.25.27-.43.52-.54,1.11-.58,1.66-.03,1.97.98-.02.07-.04.14-.06.21-.44.77-.95,1.49-1.33,2.3-.62,1.05-1.42,1.92-2.57,2.43Z"/>
          <path class="cls-2" d="m84.27,26.33c.11.32.23.65.35.97-.23.52-.77.7-1.16,1.06-.33-1.1-1.89-1.35-1.8-2.71.42-.01.63-.24.65-.65.13.06.39.15.39.19-.22,1.43.53,1.48,1.58,1.14Z"/>
          <path class="cls-2" d="m86.9,19.39c-.45.05-.6.34-.67.75-.12.73-.56.42-.95.25.06-.51.25-.97.63-1.33.35.04.74-.03.99.33Z"/>
          <path class="cls-2" d="m89.22,17.1c-.47.59.26,1.78-1,1.97.12-.65.24-1.31.36-1.96.21-.05.42-.36.64,0Z"/>
          <path class="cls-2" d="m3.58,36.24c-1.01-1.42.68-1.78,1.05-2.66.21-.01.42-.03.63-.04.34-.31.76-.32,1.18-.29.16.02.31.07.44.15.47.8.17,1.58-.62,1.54-.95-.06-1.27.69-1.92.95-.25.13-.49.28-.77.35Z"/>
          <path class="cls-2" d="m3.58,36.24c.04-.27.08-.55.36-.7.48.81.48,1.81,1.08,2.58-.11.2-.3.31-.5.37-.09.01-.26,0-.27.02-.05.2.18.15.26.25.43.34.73.74.68,1.32-.28.3-.59.6.15.69.16.31.11.57-.16.78-.93.26-.92.91-.71,1.66.05.43.31.79.45,1.19.18.72.13,1.4-.31,2.03-.29.37-.68.6-1.09.8-.38.22-.34.49-.09.79.31.36.36.78.22,1.23-.04.15-.09.3-.16.45-.52,1.16-1.38,1.6-2.62,1.27-.63-.37-.46-.94-.36-1.49.07-.14.17-.26.3-.35,1.12-.6.27-1.43.25-2.16.71-2.89.67-5.91,1.56-8.76.16-.73.32-1.46.97-1.94Z"/>
          <path class="cls-2" d="m72.75,39.49c.46-1.15,1.8-1.53,2.31-2.63.63-.71,1.07-1.55,1.64-2.31h0c.79-.05,1.44.89,2.3.33,0,.22,0,.44,0,.66.03.61.05,1.26-.64,1.53-1.29.49-2.5,1.08-3.29,2.28-.78-.13-1.51.73-2.32.14h0Z"/>
          <path class="cls-2" d="m89.53,21.36c.4.84-.14,1.81.35,2.65-.56-.61-1.39.09-2.11-.48.5-.4,1.62-.55.84-1.53.21-.35.17-1.08.93-.63Z"/>
          <path class="cls-2" d="m89.53,21.36c-.46-.02-.62.43-.93.63,0-.53-.02-1.05-.02-1.58.62,0,.93.33.95.95Z"/>
          <path class="cls-2" d="m75.06,39.16c.33-.56,1.83-2.14,2.63-2.21,1.05-.09.63-1.2,1.32-1.41.42.02.64.24.66.66.23.52-.28.86-.33,1.32-.33.27-.67.78-.99.77-2.17-.07-1.39,2.34-2.66,3.07-.61.34,1.19.41.36,1.12-.68.08-1.04.8-1.74.84-1.95-1.01.15-2.06.02-3.11-.03-.25.42-.72.73-1.03Z"/>
          <path class="cls-2" d="m79.34,37.51c-.45-.58-.06-.95.33-1.32.81.01.5-.84.9-1.18.48.4.94.79,1.41,1.18-.31.44-.03.88,0,1.32h0c-.4.6-.57,1.46-1.55,1.42-.27,0-.56-.03-.43-.44.3-.67.64-1.37-.66-.98Z"/>
          <path class="cls-2" d="m82.3,32.57c.22.33.44.66.66.99-.06,1.61-1.05.63-1.7.6-.02,0-.05-.1-.04-.14,0-.05.06-.09.09-.13.38-.24.15-.68.33-.99.22-.11.44-.22.65-.33Z"/>
          <path class="cls-2" d="m81.65,32.9c.18.43.5.9-.33.99.11-.33-.52-.91.33-.99Z"/>
          <path class="cls-2" d="m86.55,32.86c-.23,0-.42-.04-.35-.24.04-.11.22-.19.35-.24.05-.02.22.14.2.16-.06.12-.15.23-.21.31Z"/>
          <path class="cls-2" d="m80,38.49c1.12.6,1.17-.95,1.98-.98.04.63.85.95.68,1.67-.01.32-.03.64-.04.96-.7.31-.53,1.94-1.99,1.2.27-.43.55-.86.83-1.3-.54-.38-.96.81-1.43.07-.33-.51-.6-1.08-.02-1.63Z"/>
          <path class="cls-2" d="m73.41,47.06c.41-.22.84-.38,1.31-.33.1.13.09.25-.03.36-.12.11-.14.26-.18.4.15-.11.04-.35.22-.44.82-.42,1.82-.48,2.35-1.36-.42-.1-.94.04-1.36-.27.1-.61-.3-.95-.67-1.32,1.11-.33,2.12-.66,3.23.34.37.34.58-.95,1.11-1.46.41.31.23.76.28,1.12-.55.8-.29,1.8-.64,2.65.31.5-.03.74-.4.97-.55.19-1.08.44-1.65.61.69.68,1.09,1.3-.32,1.54-.65.11-1.03.8-1.72.81-.34.02-.64-.07-.88-.33h0c-.19-.25-.22-.48.03-.7-.24-.16,1,.01.07-.33-.51-.18-.95-.56-1.27-.99-.48-.65-.54-1.2.51-1.27Z"/>
          <path class="cls-2" d="m78.92,38.79c.17.62.16,1.17-.42,1.61q-.48-1.16.42-1.61Z"/>
          <path class="cls-2" d="m74.4,43.11c.58-.14.81-1.17,1.65-.64-.27.58-1.2.77-1,1.63-.27-.01-.51-.08-.66-.33,0-.22-.23-.44,0-.66Z"/>
          <path class="cls-2" d="m80.99,44.76c-.04.64-.5.66-.97.68.02-.67.48-.69.97-.68Z"/>
          <path class="cls-2" d="m79.03,52.01c.01.55-.08,1.05-.67,1.3-.2-.18-.27-.41-.25-.68.14-.44.35-.78.9-.64l.03.02Z"/>
          <path class="cls-2" d="m78.36,52.64c-.59.27-.72.77-.65,1.35,0,.22-.01.43-.02.65-.43.45-.85.9-1.28,1.35-.39-.27-.44-.69-.48-1.12-.03-.64-.19-1.32.52-1.73.85-.32,1.17-1.1,1.57-1.8.88-.67.66-2.02,1.63-2.63.38.23.32.62.36.98-.34.77-.89,1.44-1.01,2.3-.22.22-.43.43-.64.65Z"/>
          <path class="cls-2" d="m66.48,77.01c.03.95.14,1.92-.6,2.7-.06-.04-.12-.09-.18-.13-.45-.5.08-1.29-.52-1.75-.11-.1-.19-.22-.25-.35-.21-.35.08-1.05-.51-1.05-.69,0-.88.72-1.21,1.2-.26.41-.51.81-.53,1.32-.31.74-1.05,1.24-1.22,2.07-.19.36-.4.7-.86.72-.24-.07-.41-.22-.52-.44.04-1.19-.01-2.4,1.29-3.09.17-.09.17-.49.29-.74.42-.88.92-1.72,1.43-2.55.67-1.1,1.56-1.46,2.72-.71.78.8.31,1.91.68,2.81Z"/>
          <path class="cls-2" d="m66.48,77.01c-1.03-.68-.44-1.75-.64-2.63,0-.07.02-.14.03-.21.18-.67-.06-1.47.66-1.96.41-.21.86-.28,1.31-.32.16,0,.3.06.44.14.55.54.29,1.07-.08,1.55-.36.47-.6.98-.75,1.55-.21.58-.24,1.26-.87,1.62-.02.09-.06.18-.09.26Z"/>
          <path class="cls-2" d="m80.01,49.69c-.39-.23-.33-.62-.36-.98.15-.26.4-.33.67-.34-.03.46.14.96-.31,1.32Z"/>
          <path class="cls-2" d="m18.09,48.04c.22.44.44.88.66,1.32-1.1.24-1.52-.22-1.33-1.3.13-.01.25-.03.37-.04.1.02.19.02.29.02Z"/>
          <path class="cls-2" d="m17.43,48.06c.2.68.65,1.11,1.33,1.3.15.58.26,1.18.96,1.38.01.2.02.4.04.6.39,1.04-.56,1.61-.89,2.39-.22.52-.38.85.22,1.14.21.3.08.57-.04.85-.37.57-.66,1.2-1.27,1.57-.83-.06-1.08-.72-1.39-1.32-.02-.57.06-1.15-.23-1.68-.13-.55-.15-1.15-.63-1.56-.29-.39-.45-.81-.4-1.3.02-.58.36-1.02.79-1.62-.81.49-.8,2.33-2.21,1.1-.36-.16-.73-.28-.94-.66.02-.94.43-1.8.84-2.58.47-.89,1.26-1.7,2.49-.94.16.73,1.09.68,1.33,1.33Z"/>
          <path class="cls-2" d="m22.67,55.31c1.04.91,2.31,1.64,2.38,3.25-.06.05-.11.1-.17.15-.75.12-1.45-.36-2.3,0-.7.3-1.04-.76-1.63-1.09-.21-.45-.38-.92-.75-1.28.3-1.5.74-1.69,2.45-1.05Z"/>
          <path class="cls-2" d="m22.67,55.31c-.83.3-2.36-.61-2.26,1.3-.04.07-.08.13-.12.2-.31.27-.66.4-1.07.27-.6-.35-.43-.93-.45-1.46.11-.22.22-.43.33-.65.65-.74.87-2.1,2.35-1.68.83.42.83,1.35,1.24,2.02Z"/>
          <path class="cls-2" d="m21.43,53.29c-.83.13-1.36.66-1.63,1.39-.17.47-.39.41-.71.28-.4-.12-.87.56-1.15,0-.16-.32.05-.76.35-1.15.58-.75.98-1.64,1.46-2.48.56.65,1.13,1.29,1.69,1.94Z"/>
          <path class="cls-2" d="m26.02,61.19c-.12.12-.23.23-.35.35-.47-.23-.78-.72-1.35-.77-.52-.06-.79.9-1.43.35-.26-1.63.88-2.1,2.08-2.52l.09-.04c.41.84.35,1.86.97,2.63Z"/>
          <path class="cls-2" d="m51.96,70.77c.22-1.24,1.14-2.28,1.06-3.61.93-.65.76-1.96,1.6-2.67.34-.18.62-.78,1.08-.26.35.39.22.89-.19,1.14-.58.37-.77.89-.83,1.51-.03.15-.07.29-.11.44-1.07,1.55-.59,3.71-2.01,5.13-.57.74-.66,1.64-.85,2.51-.04.15-.1.29-.18.42-.26.32-.6.48-1.02.44-.07-.04-.13-.08-.2-.11.55-1.64,1.1-3.29,1.66-4.93Z"/>
          <path class="cls-2" d="m54.31,67.14c.09-.71-.27-1.59.74-1.95.33-.12.65-.28.48-.68-.25-.61-.62.39-.92-.03.02-.21.04-.42.06-.63.21,0,.41,0,.62,0,.11-.11.25-.17.41-.18.33.05.6.24.9.34.89.29.97.81.32,1.41-.77.71-1.58,1.38-2.6,1.71Z"/>
          <path class="cls-2" d="m24.96,58.6c-.71.82-2.01,1.21-1.92,2.62.68.23.91-.39,1.31-.68.1-.27.14-.77.55-.33.34.37.51.88.76,1.33.78.86,2.14,1.22,2.29,2.63-.13.7.16,1.34.35,1.98v.33c-1.8.45-3.1-.01-4.01-1.46-.26-.41-.55-.8-.81-1.21-.08-.12-.15-.25-.22-.38-.04-.03-.07-.11-.11-.11-2.12-.1-2.36-.47-1.76-2.73.12-.25.26-.48.45-.68.08-.08.24-.11.25-.21.04-.21.09.03-.13-.01-.19-.03-.37-.11-.54-.2-.12-.07-.23-.16-.33-.25-.2-.21-.35-.45-.47-.72-.04-.39-.42-.93.42-.92.25-.08.49-.24.76-.02.33.28.27,1.97,1.21.24.27-.5,1.16.74,1.94.78Z"/>
          <path class="cls-2" d="m23.69,63.52c.97.84,1.24,2.34,2.79,2.7.62.15,1.3-.27,1.83.27.22,0,.44,0,.66,0,.18.19.2.41.11.64-1.46.59-1.13,1.8-1,2.93-.39.67-1,.59-1.24.06-.39-.85-1.23-1.3-1.63-2.11-.05-.14-.08-.28-.1-.42,0-.34-.04-.67-.31-.92-.35-.34-.79-.58-1.02-1.03-.06-.13-.11-.26-.16-.4-.08-.5-.5-.89-.43-1.43.09-.23.21-.39.49-.29Z"/>
          <path class="cls-2" d="m28.31,66.15q-.95-.43-.35-1.98c.15.66,1.09,1.17.35,1.98Z"/>
          <path class="cls-2" d="m54.31,67.14c.58-1.19,2-1.42,2.95-2.61-.83.18-1.3-.14-1.62-.69-.12-.85.48-1.13,1.08-1.42.02-.01.04-.1.02-.14-.02-.04-.08-.06-.13-.08-.58-1.85,1.24-2.25,1.99-3.29.22-.1.45-.2.67-.31.16.2.21.65.64.32.14-1.24,1.7-1.36,1.96-2.5.24.1.54.13.72.3.3.28,0,.47-.21.63-.63.51-.45.9.17,1.24.22.62-1.07,1.06-.2,1.74q.38.21.73-.53c.31-1.36.42-1.4,1.59-.56.17.38.07.74-.05,1.1-.04.14-.1.29-.15.42-.63.97-.44,2.1-.63,3.16-.56.42-1.16.75-1.83.95-1.78.47-1.93-.87-2.24-2.03-.23-.31-.07-.68-.13-1.06,0,.5-.12.96.13,1.39-.01,1,.56,1.96.24,2.99-.29.42-.7.59-1.2.53-.15-.05-.27-.13-.37-.25-.91-1.27-1.32.38-2.02.35-.58.11-.7.59-.81,1.06-.22.39-.48.85-.97.55-.42-.25-.61-.73-.32-1.25h0Z"/>
          <path class="cls-2" d="m56.61,62.2c.16,0,.35-.03.48.04.42.22.06.27-.1.32-.69.18-1.11.65-1.36,1.29-.11,0-.23,0-.35,0,.09-.83.55-1.37,1.32-1.65Z"/>
          <path class="cls-2" d="m74.4,43.11c.04.22.34.44,0,.66-.35-.04-.55-.68-.98-.31-.6.51-.81.18-1.07-.35-.22-.45-.78-.7-.23-1.38.47-.59,1.01-1.32.65-2.23.82.29,1.38-1.32,2.3-.33-.09.42.62,1.09-.44,1.21-.27.03-.57.48-.17.7.63.35.47.36-.07.59-1.07.44-.68.98.02,1.46Z"/>
          <path class="cls-2" d="m73.41,47.06c-1.3.81-.07,1.16.36,1.43.9.56,1.01,1.11.3,1.86-1.75-.23-2.53-1.42-2.96-2.96h0c.68-.53,1.33-1.15,2.3-.66,0,.11,0,.22,0,.33Z"/>
          <path class="cls-2" d="m73.41,46.73c-.82.05-1.44.79-2.3.66-.15-.66.34-1.32,0-1.97h0c1.06-.08,2.14-.19,2.3,1.31Z"/>
          <path class="cls-2" d="m74.73,47.06c0-.11,0-.22,0-.33h0c.24-.2.39-.49.66-.66.26-.14.32-.39.34-.65.57-.53,1.31.16,2.1-.65-.65,1.82-1.43,2.73-3.1,2.3h0Z"/>
          <path class="cls-2" d="m69.46,42.45c.68.92,1.78,1.6,1.65,2.96h0c-1.13-.66-2.11-1.41-1.65-2.96h0Z"/>
          <path class="cls-2" d="m69.46,42.45c.07-.95.51-1.57,1.51-1.73.31-.05.55-.05.66.26.1.3-.06.64-.34.6-.85-.13-1.15.75-1.83.88h0Z"/>
          <path class="cls-2" d="m75.39,46.07c-.02.42-.24.64-.66.66.06-.26.13-.53.17-.79.03-.25-.1-.61.32-.57.08,0,.12.46.18.7Z"/>
          <path class="cls-2" d="m64.19,60.56c0-.11,0-.22,0-.33.43-.24.73-.73,1.32-.65.11,0,.22,0,.33,0,1.11.84,2.04.14,2.97-.38.44-.25.68-.85,1.44-.78-.3.52-.98.8-.79,1.48-.07.44-.35.69-.74.84-.36.11-.89.09-.95.51-.22,1.61-1.23,1.44-2.34,1.12-.89-.23-.64-.82-.44-1.39-.71.73-.97.58-.8-.41Z"/>
          <path class="cls-2" d="m62.23,60.54c-1.63-.94-.24-1.38.32-1.96h0c.24-.36.48-.71.99-.66.27,0,.52-.07.66-.33.38-.35.95.24,1.31-.29.23-.34.56-.3.78.01.11.15.17.42.11.59-.12.34-.45.11-.66.17-.48.13-1.4-.27-1.21.84.08.07.11.15.08.22-.03.07-.06.1-.09.1-.9-.63-.96,0-.99.66-.47.15-.67.82-1.3.65Z"/>
          <path class="cls-2" d="m64.52,59.23c0-.11,0-.21,0-.32.47,0,.8.23.99.66-.34.43-.8.6-1.32.65.11-.33.22-.66.33-.99Z"/>
          <path class="cls-2" d="m64.86,54.63v-.66c.54.12,1.09.24,1.63.36-.01.1-.02.2-.03.31h-1.61Z"/>
          <path class="cls-2" d="m68.8,60.56c.22-.22.44-.44.66-.66,1.01.05,1.5.36.66,1.32-.26.65.4.69.67.98h0c.11.1.11.18,0,.25.24.09.19-.19.33-.25.5-.25.98-.53,1.32-.99.85.09.63.65.53,1.17-1.26,2.69-2.11,5.57-3.8,8.06-.02.1-.03.2-.03.31-.23.26-.11.73-.51.89-.25.17-.7,0-.8.45-.35.45-.85.28-1.3.31-.54-.03-.62.3-.58.73.04.42.16.85-.1,1.25h0c-1.17-.34-2.07-.3-2.53,1.14-.26.79-.92,1.45-1.4,2.17-.31.02-.57-.07-.75-.34-.09-.4.17-.67.35-.97.29-.52-.23-.91-.24-1.38-.03-.23,0-.45.07-.67.34-.61,1.02-.8,1.53-1.19,1.05-.81,2.03-1.69,2.42-3.01.3-1.02.6-1.96,1.76-2.36.38-.13.77-.56.37-1.05-.94-1.14-.23-2.21.41-2.94.68-.77,1.12-1.34.7-2.35-.13-.3.01-.65.29-.88Z"/>
          <path class="cls-2" d="m72.76,62.53c-.04-.45.13-.96-.33-1.31h0c-.21-.66.57-.81.66-1.32.57.03.86-.47,1.31-.66.41-.57-.11-.9-.33-1.31-2.18-.18-2.34-1.58-1.97-3.29.43,0,.87,0,1.3-.01.32-.27.4-.95,1.07-.63.37.93-.57,1.28-.88,1.97.8.25,1.12-.24,1.41-.83.28-.59.66-1.03,1.37-.5.01.45.02.91.03,1.36-1.01,2.17-2.02,4.34-3.03,6.51-.1,0-.2,0-.3.03-.11.11-.22.11-.32-.01Z"/>
          <path class="cls-2" d="m73.09,59.9c.45.78-.62.78-.66,1.31-.55,0-1.14,0-1.23-.71-.09-.72.71-.68,1.06-1.03.43-.44.75-.1.84.43Z"/>
          <path class="cls-2" d="m71.11,62.21c-.05.61-.34.96-1,.95-.16-.66.57-.57.68-.96.11,0,.22,0,.33,0Z"/>
          <path class="cls-2" d="m70.78,62.2c-.52,0-.95-.28-1.13-.71-.26-.63.22-.31.46-.27.22.33.44.66.67.98Z"/>
          <path class="cls-2" d="m74.07,57.92c.54.33.95.69.33,1.31-.11-.44-.22-.88-.33-1.31Z"/>
          <path class="cls-2" d="m63.54,57.93c-.33.22-.66.44-.99.66.03-.68.07-1.33.99-.66Z"/>
          <path class="cls-2" d="m59.91,58.92c-.17.23-.17.7-.57.61-.09-.02-.05-.6-.06-.92.21.11.42.21.64.32Z"/>
          <path class="cls-2" d="m74.4,53.97c-.33.22-.67.43-1,.65-.07-.41.53-.9.04-1.2-1.34-.82-.07-1.01.29-1.42.06.04.13.07.19.11.32.41.76.69,1.14,1.03.1.13.15.27.17.43-.11.48-.34.73-.84.4Z"/>
          <path class="cls-2" d="m74.07,50.35c.33,0,.67,0,1,0,.38.76.5,1.48-.25,2.1-.45.06-.78-.16-1.08-.45h0v-.33c-.02-.42-.88,0-.66-.66,0-.11,0-.22,0-.33.36,0,.74.04.98-.33Z"/>
          <path class="cls-2" d="m73.08,51.01c.01.42,1.1-.22.66.66-.3-.06-.64.3-.88,0-.18-.23-.01-.49.22-.66Z"/>
          <path class="cls-2" d="m76.7,34.55c-.15,1.05-.78,1.76-1.64,2.31.39-.88.61-1.89,1.64-2.31Z"/>
          <path class="cls-2" d="m4.27,38.17c.22,0,.44,0,.65,0-.19-1.58,1.32-2.2,1.89-3.35.2-.25.47-.38.78-.42.71.06.85.76,1.28,1.14h0c.48,1,.8,2.06,1.36,3.02.01.07,0,.13-.02.19.37.35,1.05.48.84,1.23-.06.15-.17.26-.31.33-.36.13-.83.31-1.08.14-.83-.58-.86.35-1.25.57-.49.27-.99.35-1.51.11-.27-.12-.53-.25-.78-.4-.19-.14-.32-.31-.32-.55.04-.14.1-.27.2-.39.05-.05.1-.1.15-.15.11-.08.22-.16.34-.22.11-.1.46-.16.06-.37-1.05-.38-.72,1.26-1.61,1.09.03-.56-.48-.86-.67-1.31-.19-.22-.19-.44,0-.65Z"/>
          <path class="cls-2" d="m10.24,38.55c-.62.11-1.18.26-.91-.78.19-.76-.94-1.35-.44-2.23,1.15.69,1.35,1.81,1.36,3.01Z"/>
          <path class="cls-2" d="m8.88,35.53c-.7.02-.74-.83-1.3-.98-.07-.3.02-.43.34-.35.74.14.88.71.96,1.33Z"/>
          <path class="cls-2" d="m10.86,40.14c.15-.63-.39-.95-.64-1.4.59-.03.94.37,1.3.74,0,.22-.02.45-.03.67-.22.19-.43.16-.64,0Z"/>
          <path class="cls-2" d="m7.92,34.2c-.11.12-.23.23-.34.35-.15.26-.4.32-.67.33-.11-.59.2-.97.65-1.29.12-.02.23-.04.35-.05,0,.22,0,.44.01.66Z"/>
          <path class="cls-2" d="m7.55,33.59c-.22.43-.43.86-.65,1.29-.1,1.43-1.48,2.1-1.98,3.29-1.03-.61-1.2-1.55-.99-2.63.54-.03.97-.29,1.13-.78.12-.37.25-.69.61-.41,1.21.95.97-.28,1.23-.77.21,0,.43.01.64.02Z"/>
          <path class="cls-2" d="m6.9,40.8c.44.31.89.02,1.33,0,.26.27.12.61.16.92.01,0,0-.01,0-.02.02-.41.11-.8.64-.67.49.12.61.55.68.99.03.21.02.43,0,.64-.09.65-.13,1.32-.97,1.77,1.43-.22,1.81.42,1.67,1.6-.08.61.31,1.16.34,1.77.02.53-.41.73-.74,1.01-.11.1-.22.19-.34.27-.65.56-.76,1.4-.23,1.89,1.34,1.22.83,1.94-.47,2.67.6-.33,1.1-.7,1.51-1.19.78-.92,1.43-.91,1.92.27.09.92-.46,1.49-1.12,2-.21.26-.8-.37-.86.54-.06,1.02-.44,2.14-1.82,2.3-.25.03.01.19.04.27.27.72-.07,1.14-.68,1.44-.82-.37-1.85.46-2.58-.44-.25-.22-.39-.5-.39-.84.04-.5.34-.86.67-1.19.2-.19.44-.33.63-.52-.49-1.09-.52-2.25-.59-3.41.23-.77,1.48-1.51.02-2.29-.67.45-.99,1.8-2.1,1.26-1.08-.53-.13-1.65-.35-2.48,0-.11,0-.22.01-.32.31-.27.59-.18.87.05.33-.4-.43,1.22.49.23.7-.76,1.44-1.84,2.77-1.79.39.16.23.6.35.97.29-.39.1-.6-.03-.83-1.28-.06-2.6-.84-3.83.2-.21.18-.48.34-.71.05-.24-.3-.18-.6.08-.88.33-.22.66-.44,1-.66.52-.27.9-.63.6-1.27-.33-.71.18-1.07.57-1.49.12-.48.15-.98.4-1.42.06-.13.14-.25.21-.38.36-.28.07-1.1.85-1.03Z"/>
          <path class="cls-2" d="m6.57,56.61c-.22.11-.44.22-.66.33-.07,0-.15,0-.22,0-.76-.3-1.26.24-1.83.56-.89,0-.74-.78-.91-1.29-.2-.61-.41-1.22-.61-1.84-.05-.15-.08-.3-.1-.45-.02-.76,0-1.51-1.08-1.58-.38-.02-.68-.31-.74-.74.06-.31,0-.65.25-.91,1.15.12,2.12-.13,2.61-1.32.65.64-.16,1.89.52,2.18,1,.42,1-1.06,1.7-1.45.37-.21.81-.51.8.07,0,.77,1.85,1.23.37,2.13-.32.2-.72.21-.75.69-.31,1.31.24,2.45.66,3.63Z"/>
          <path class="cls-2" d="m7.57,47.72c-.93-.21-.88.82-1.38,1.09-.9.49-1.84,1.43-2.9.22.4-.67-.46-.75-.54-1.17-.08-.39-.51-1.1.52-.82.22.11-.28,1.19.48.45.75-.73,1.52-1.1,2.29-.41.59.53,1.63-.7,1.84.61-.1.11-.21.12-.32.02Z"/>
          <path class="cls-2" d="m.67,50.69c0,.33-.02.65-.03.98-.18.32-.01.55.27.6,1.22.24.9.96.56,1.7-.07.41-.03.82.05,1.23.03.22.01.43-.08.63-.05.05-.11.09-.16.14-1.53-.77-.9-2.36-1.2-3.55-.23-.91.05-2.1.57-3.06.31.44,0,.88.01,1.32Z"/>
          <path class="cls-2" d="m5.92,40.15c.11.11.22.22.33.33.15.55.33,1.09,0,1.64l-.03.02c-.33.17-.49.45-.57.8-.06.65-.4,1.05-1.06,1.16-.41-.07-.82-.14-.33-.66.17-.27.19-.6.33-.89.12-.3.13-.62.21-.93.04-.05.08-.1.12-.15.26-.15.32-.39.33-.66.07-.37.09-.8.66-.65Z"/>
          <path class="cls-2" d="m4.6,44.09c.32-.44.65-.88.97-1.32.34.25.02.72.33.97-.33.61-1.05,1.03-.55,1.99.19.37-.53.72-1.09.65.46-.71.31-1.52.33-2.29Z"/>
          <path class="cls-2" d="m.66,49.37c-.39-.94.32-1.57.64-2.31,1.07,1.69.95,2.1-.64,2.31Z"/>
          <path class="cls-2" d="m5.92,40.15c-.22.22-.44.44-.66.65-.23-.05-.57.13-.67-.18-.04-.11.22-.32.35-.49.51-.65.22-2.52,1.97-1.31.22.44-.18.67-.33.99-.11,0-.22,0-.33,0h0c-.11.11-.21.22-.32.34Z"/>
          <path class="cls-2" d="m4.92,42.77c-.12.32-.34.54-.65.66-.7-1.36-.51-1.93.66-1.97h0c-.17.44-.21.87,0,1.31Z"/>
          <path class="cls-2" d="m4.27,38.17c0,.22,0,.44,0,.65-.25-.06-.71-.13-.71-.19.01-.43.39-.42.71-.47Z"/>
          <path class="cls-2" d="m74.73,52.31c.4-.6.18-1.32.34-1.96.73-.14.96-1.38,1.98-.91.03.01.24-.22.23-.31-.02-.13-.18-.33-.28-.33-.36-.01-.72.04-1.27.09.72-1.05,1.74-1.17,2.65-1.49.2,1.64-1.17,2.6-1.68,3.93-.52.68-.24,2.02-1.64,1.98l-.02-.02c-.36-.25-.67-.51-.31-.99Z"/>
          <path class="cls-2" d="m74.73,47.06c-.07.39.43.83-.5,1.41.21-.65-.34-1.1.5-1.41h0Z"/>
          <path class="cls-2" d="m76.72,53.32c.26-.17.3-.42.28-.69-.07-.11-.05-.21.05-.29.43-.23.23-1.07.97-.99-.1.88-.24,1.73-1.3,1.98Z"/>
          <path class="cls-2" d="m59.23,84.87c-1.05.64-.95,1.8-1.27,2.77-.21.63.11,1.46-.68,1.88-.21,0-.45-.21-.61.12-.08.11-.18.2-.29.29-1.03.63-1.57.25-1.22-.82.24-.73-.1-2.21,1.6-1.88.38.07.15-.5.14-.77-.04-1.09-.05-1.97,1.08-2.82,1.33-1-.27-1.01-.79-1.34q-.15-1.53,2.06-1.78c-.79.25-1.33.17-1.33-.77,0-1.01-.38-2.11.76-2.8.09-.06.21-.06.32-.05.53.07.54.62.85.91.35-.5.79-.73,1.39-.45.28,0,.52.09.66.35-.69,1.14-1.54,2.2-1.65,3.6-.04.46-.49.78-.42,1.27.24.89-.56,1.5-.6,2.31Z"/>
          <path class="cls-2" d="m65.82,79.64c-.12.23-.26.45-.37.69-.14.3-.32.64-.69.44-.33-.18-.31-.64-.1-.84.68-.66.48-1.47.53-2.25.28.12,1.13-.61.76.53-.14.45-.09.95-.13,1.43Z"/>
          <path class="cls-2" d="m59.83,82.56c-.51-.64-.09-.97.42-1.27.11.12.23.23.34.35-.25.31-.51.62-.76.92Z"/>
          <path class="cls-2" d="m65.84,74.38c-.17-.72-.46-1.44-.08-2.18.1-.21.04-.64.43-.48.17.07.22.45.33.68-.63.52.55,1.66-.68,1.98Z"/>
          <path class="cls-2" d="m68.49,71.42c-.12.22-.24.43-.36.65-.11,0-.22.01-.32.02-.13-.14-.41-.35-.38-.41.23-.5.7-.18,1.07-.26Z"/>
          <path class="cls-2" d="m11.56,40.76c.33.05.78.17.76.49-.06,1.42.87,2.11,1.87,2.79-.05.07-.1.14-.16.21-1.47.59-2.11-.19-2.43-1.48.03-.67-.77-1.32-.05-2Z"/>
          <path class="cls-2" d="m11.56,40.76c-.48.66.86,1.01.29,1.69-.09,0-.17.02-.25.03-1.33-.34-1.47-1.21-1.06-2.34.11,0,.22,0,.33,0,.21,0,.42,0,.64,0,.02.2.04.41.07.61Z"/>
          <path class="cls-2" d="m14.81,44.11c.22.65.45,1.3.67,1.94-1.55-.25-1.7-.48-1.35-1.93l.07-.09c.2.03.41.05.61.08Z"/>
          <path class="cls-2" d="m14.12,44.13c-.15,1.07.59,1.5,1.35,1.93.4.05.65.23.61.67-1.34-.01-2.23.59-2.39,1.95-.08.7-.72,1.04-.87,1.66-.07.02-.15.04-.22.07-.72-1.09-1.23-2.28-1.61-3.52.01-.24-.26-.06-.04-.1-.37.34,1.21,1.35-.43,1.26-.59-1.03-.62-2.19-.48-3.82-.6.77-.84,1.09-1.13,1.46-.61-.49-.27-1.27-.73-1.78-.18-.2.26-.19.53-.16.9.09.28-.66.49-.96.38.3.68.63,1.21.06.29-.32,1.03.12,1.4-.4h.03c.25,1.26.97,1.88,2.27,1.69Z"/>
          <path class="cls-2" d="m21.72,60.56c-.39.84.06,1.67-.05,2.21.67,1.05,1.49-1.49,2.02.42-1.01.59-1.08,1.61-1.2,2.62-.11.11-.24.17-.39.2-.58-.1-1.12-.37-1.72-.39-.21-.11-.36-.28-.42-.52.86-1.28.17-2.76.53-4.11-.42-.36-.11,0-.07.08.05.09.1.18.12.28-.44.58-.04,1.94-1.19,1.75-1.04-.17-.71-1.28-.72-2.06,0-.92-.01-1.84,0-2.76,0-.51-.15-.84-.69-.9-.06-.04-.12-.09-.17-.14.08-.7.56-1.16.99-1.65.22.44.44.88.66,1.32.22.18.45.34.58.61.17.3.31.62.47.92.17.43.6.53.92.77h0c.52.34.66.77.33,1.32Z"/>
          <path class="cls-2" d="m16.46,55.95c.64.24.83.92,1.31,1.32h0c.86.48,1.33,1.02.75,2.1-.42.78.3,1.64.12,2.55-.15.74-.07,1.52-1.12,1.36-.94-.15-2.26.17-2.28-1.46,0-.33-.07-.73.12-.96.66-.82.34-1.38-.18-2.18-.79-1.21.58-1.79,1.09-2.61.07-.04.13-.07.2-.11Z"/>
          <path class="cls-2" d="m11.18,54.63c.12-.76,1.06-1.12.99-1.97,0-.57.16-1.06.65-1.41.15-.03.3,0,.44.07.43.41.48,1.06.95,1.54.51-.47.13-1.65,1.24-1.52-.03.48.12.91.35,1.32.31.31.25.68.09,1-.33.69.2.58.56.65.88.54.38,1.1,0,1.65h0c-.66,1.07-1.85.97-2.84,1.27-.3.09-.66-.04-.84-.36-.25-.48.04-.8.35-1.13.25-.26,1-.36.47-.93-.46-.51-.96-.34-1.36.19-.23.31-.52.56-.96.44-.14-.09-.23-.21-.26-.37,0-.16.06-.31.17-.42Z"/>
          <path class="cls-2" d="m15.45,51.33c-.47.26-.75.63-.53,1.19.18.47.18.91-.39.99-.43.06-.77-.14-.9-.69-.12-.5-.58-.9-.47-1.49-.1-.55.39-.49.66-.65.39-.16,1.15.63,1.16-.56,0-.56.22-.56,1.35-.76.29.92-.81,1.23-.89,1.98Z"/>
          <path class="cls-2" d="m16.45,54.3c-.43.18-.47,1.11-1.08.76-.51-.3-.13-.88.04-1.33.14-.35.25-.72.38-1.08,1.02.23.53,1.06.65,1.65Z"/>
          <path class="cls-2" d="m13.82,50.68c.14.58-.51.37-.66.65h-.16s-.16,0-.16,0c-.58-.32-.55-.65,0-.98h0c.36,0,.75-.04.99.33Z"/>
          <path class="cls-2" d="m20.08,58.58c-.11-.33-.22-.66-.33-.99-.22-.62.55-.58.66-.99h0c1.2-.33.46.64.66.99-.5.33-.1.66,0,.98-.33.29-.66.27-.99,0Z"/>
          <path class="cls-2" d="m20.41,56.61c.46.79-.55.59-.66.99-.25-.15-.32-.39-.33-.66.33-.11.66-.22.99-.33Z"/>
          <path class="cls-2" d="m24.36,60.54c-.16.76-.39,1.38-1.31.68.53-.06.54-1.1,1.31-.68Z"/>
          <path class="cls-2" d="m49.06,78.33c.17-.78.68-1.45.66-2.29.2-.11.4-.23.59-.34,0,0,.11-.02.11-.02.54.96.23,1.9-.11,2.82-.43,1.16-.94,2.29-1.76,3.25-.4.07-.59-.13-.68-.49-.08-.61-.06-1.2.42-1.67.42-.32.36-.93.76-1.26Z"/>
          <path class="cls-2" d="m48.4,81.63c.71-1.97,2.11-3.7,2.02-5.95.31-.11.62-.21.93-.32.21.82.52,1.62.29,2.49-.16.25-.34.48-.54.69-.23.31-.57.81-.16.98,2.04.85.65,1.48-.07,2.17-.12.09-.25.16-.39.21-.38.15-.83.12-1.15.44-.32.13-.22.37-.14.6-.3,1.74-.76,3.45-.93,5.22-.08.13-.18.24-.3.33-.77.66-1.5,1.34-1.85,2.33-.37.82-.11,1.72-.3,2.57-.04.17-.11.32-.2.47-1.09.85-1.3-.11-1.65-.8-.01-.85.35-1.62.72-2.31,1.54-2.92,1.7-6.4,3.73-9.11Z"/>
          <path class="cls-2" d="m54.31,67.14c.06.42.11.95.55,1.05.37.08.39-.4.44-.71,1.27.21.5,1.55.81,1.76.57.38,1.6.08,1.91,1.07.43,1.37-.7,2.61-2.13,2.31-.42-.09-.73.11-1.08.21-.83.36-1.65.91-2.58.22-.07-.23-.09-.46.1-.64,1.06-1.61.76-3.72,1.97-5.27Z"/>
          <path class="cls-2" d="m51.35,77.69c-.09-.77-.4-1.54,0-2.31,0-.11,0-.22,0-.32.26-.33.39-.84.97-.78.46.19.88.49,1.34.69.05.06.09.12.14.17.06.14.09.29.09.44-.1,1.15-.46,2.14-1.68,2.54-.39.13-.88.31-.88-.43Z"/>
          <path class="cls-2" d="m52.34,74.38c-.33.22-.65.44-.98.66,0-1,.1-1.96.98-2.64,0,.22,0,.44,0,.66.26.44.25.88,0,1.32Z"/>
          <path class="cls-2" d="m22.38,65.82c-.52-1.36-.14-2.26,1.32-2.63,0,.11,0,.21,0,.32-.11.11-.22.22-.33.34-.26.68.31.94.66,1.31,0,.11,0,.22,0,.33-.15.43-.18.99-.77,1.05-.48.05-.77-.26-.88-.72Z"/>
          <path class="cls-2" d="m26.33,64.59c-.05.21-.07.48-.37.4-.1-.02-.24-.26-.22-.36.05-.18.18-.45.32-.48.33-.07.24.25.27.44Z"/>
          <path class="cls-2" d="m20.08,58.58c.33,0,.66,0,.99,0,.11.22.22.44.33.66-.52-.06-1.2.2-1.32-.66Z"/>
          <path class="cls-2" d="m22.05,59.56c.27-.04.69-.44.77-.05.11.55-.48.3-.77.39-.08-.08-.11-.15-.08-.23.03-.08.05-.11.08-.11Z"/>
          <path class="cls-2" d="m22.05,59.56v.34c0,.27-.08.51-.33.65.05-.48-.1-.91-.33-1.32.27,0,.51.07.66.32Z"/>
          <path class="cls-2" d="m22.38,65.82c.72.75,1.2.33,1.65-.32.33.33.66.66,1,.98.28.28.17.68.32.99,0,.11,0,.22,0,.33-.61.82-1.42,1.55-1.23,2.72-1.07,1.56-.92,2.44.58,3.37.09.06.23.07.27.16,1.06,2.25,1.15.15,1.6-.35,1.11.39,2.67-.29,3.25,1.37.12.54.71.63,1,1,.7,1.12.34,2.27.05,3.45.6-.29.3-.9.53-1.3.65-1.12,1.39-.99,2.17-.15.09.13.13.27.14.42-.09.1-.14.24-.27.31.15.02.12-.18.26-.2.88,1.01,2.32,1.67,2.05,3.37-.27.61-.51,1.23-.93,1.77-1.22.41-2.36,1.31-3.67-.01-.47-.48-.41-.87-.48-1.34-.22-.76.28-1.01.86-1.21.47.17.95.25,1.52.09-.53-.33-1.02.07-1.47-.12-.75.22-1.53.72-2.17-.23-.29-.43-.64-.27-.98-.02-.4.29-.82.54-1.34.53-.37-.02-.73-.2-1.13-.06-.64.22-1.12.04-1.14-.7-.03-1.13-.76-.56-1.25-.55-.33-.02-.55-.32-.88-.37-.33,0-.52.34-.85.34-1.43-.37-2.34-1.7-2.66-2.71-.54-1.74-1.49-2.51-3.07-2.89-.42-1.6.86-1.41,1.76-1.62-1.68.21-2.58-.51-2.26-1.8.18-.71.97-.82,1.31-1.37.33-.27.75-.44.91-.89.33-.66.44-1.57,1.53-1.37q.77.99,1.66.05c-.56.62-1.11.83-1.61,0-.32-.25-.56-.54-.6-.96.05-1.08.78-.99,1.52-.87.57.02,1.1.47,1.71.18.11,0,.22,0,.33,0Z"/>
          <path class="cls-2" d="m29.62,75.37c-.36-.51-.42-1.42-1.5-.87-.66.34-.89-.65-1.46-.78-.24-.13-.36-.44-.61-.5-.95-.26-1.64-.65-1.51-1.83.04-.34-.46-.57-.52-.96-.79-1.49-.05-2.22,1.32-2.63.63.71,1.82.94,1.8,2.24,0,.32.53.19.83.06.64-.13,1.02.17,1.19.76.09.31-.21.86.45.8.53-.05.86-.4.94-.94.04-.33-.11-.63-.16-.95-.02-.25.04-.46.22-.64.6,0,.63.51.79.9.41,1.01.8,2.02,1.19,3.04-.49.59-1.04.95-1.77.47-.43.66.44,2.07-1.2,1.83Z"/>
          <path class="cls-2" d="m30.61,69.78c.71,1.13.28,2.32-.92,2.55-.62.12-1.13-.61-1.06-.7.8-1-.31-1.09-.66-1.52-.79-.54-.85-1.45-.27-1.9.83-.66-.2-.84-.13-1.25.49.06.96.11,1.43.17.58.27.87.68.62,1.33.34.17-.65.47.09.67.33.09.64.37.9.66Z"/>
          <path class="cls-2" d="m24.03,65.17c-1.02-.04-1.29-.45-.66-1.31.2.45.7.74.66,1.31Z"/>
          <path class="cls-2" d="m25.34,67.47c-.37-.24-.32-.63-.32-.99.85.09.44.59.32.99Z"/>
          <path class="cls-2" d="m29.62,75.37c.42-.19.81-.27.59-.99-.15-.48.15-1.12.32-2.09.57,1.3,1.36.81,2.06.77.22.43.67.74.67,1.29.42.39.9.72.81,1.42-.11.81.53.9,1.08,1.06.27.15.42.4.52.68.02.37.26.57.55.75.08.13.12.27.11.42-.28.83-.74,1.17-1.56.6-.24-.25-.28-.64-.61-.82-.19-.08-.39-.12-.59-.13-.66-.2-1.32-1.15-1.97,0-.76.05-.46-.49-.46-.84,0-.57.19-1.18-.53-1.47-.43-.08-1.09.21-.99-.66Z"/>
          <path class="cls-2" d="m34.2,74.43c.34.86.68,1.73,1.02,2.59-1.16.29-1.96.09-1.58-1.35.15-.58-.49-.81-.38-1.31.31.02.63.05.94.07Z"/>
          <path class="cls-2" d="m30.61,69.78c-.42-.37-1.84,0-.98-1.33.35.19.49.69.98.68v.65Z"/>
          <path class="cls-2" d="m54.64,72.41c.55.04,1.08-.83,1.68.07.28.42.69.05.89-.3.36-.62.64-1.32.36-1.99-.12-.29-.56-.73-1.09-.47-.32.16-.61.38-.93.59-.55-.95,1.03-2.02-.26-2.83-.06-.72.26-1.05.99-.99.77,1.16,1.53.24,2.3,0h0c.53.74,1.41,1.21,1.7,2.15.22,1.15-.77,2.32.19,3.52.36.45.6,1.57-.27,1.82-.8.23-1.22-.6-1.49-1.27-.21.4-.54.87-1.12,1.06-.98.32-1.93.7-2.77,1.34-.37.28-.81.31-1.19-.05h0c.24-.92.58-1.79.99-2.64Z"/>
          <path class="cls-2" d="m59.91,68.79c.04-1.04-1.8-1-1.31-2.3.43-.11.86-.22,1.3-.33.89.31,1.68-.6,2.58-.19.44.34.67.94,1.29,1.06.9,1.17.87,1.24-1.08,2.02-.13.32.13.49.28.7.39.56.81,1.26.32,1.79-.45.48-1.3.38-1.97.39-.59,0-.58-.57-.51-1.01.14-.9-.13-1.61-.89-2.13Z"/>
          <path class="cls-2" d="m62.54,66.16c-.71,0-1.34.21-1.92.6-.92.62-.59-.27-.72-.6-.5-.95-.62-1.95-.32-2.99-.1-.32.04-.39.32-.32.58-.25,1.22,0,.91.54-1.1,1.92.71.78,1.08,1.11.36.5,1.86.54.65,1.65Z"/>
          <path class="cls-2" d="m62.54,66.16c.47-.82-.65-1.02-.65-1.65.67-.18,1.16-.9,1.97-.66.08,0,.15,0,.23,0,1.4,1.1.06,2.01-.2,3-.1.12-.22.21-.36.28-1.08.43-.92-.39-.99-.98Z"/>
          <path class="cls-2" d="m58.59,66.48c-.88,1.47-1.04,1.51-2.28.78-.49-.29-.03-.52-.02-.78.34-.28.68-.55,1-.84.34-.3.68-.61,1.16-.34.56.31.1.79.14,1.18Z"/>
          <path class="cls-2" d="m64.19,60.56c.83.24.83,1.14,1.31,1.65.17.34.03.64-.1.95-.33.65-.71,1.16-1.54.69h0c-.67-1.18-.35-2.25.33-3.29Z"/>
          <path class="cls-2" d="m62.23,60.54c.37-.35.7-.77,1.3-.65-.3.53-.41,1.25-1.22,1.3-.18.01-.49.09-.47-.22,0-.15.25-.29.39-.43Z"/>
          <path class="cls-2" d="m59.9,62.85c-.11.11-.22.21-.32.32-.74-.7.07-1.38-.1-2.42.62.86.37,1.51.43,2.1Z"/>
          <path class="cls-2" d="m65.18,62.86c.11-.22.21-.44.32-.66.54-.81,1-.29,1.38.31.53-.96-.2-2.96,1.92-1.96,0,.55.12,1.04.32,1.56.18.49.35,1.14-.63,1.48-.96.32-1.02,1.92-.41,2.9.43.67-.4,1.67-.45,1.68-1.33.1-1.4.84-1.79,2.01-.5,1.53-1.72,3.05-3.48,3.74-.29.11-.54.31-.81.47-.64,1.53-2.2,1.46-3.33,1.45-.7,0-1.16-.4-1.42.5-.05.16-.13.29-.26.4-.48.37-1.1-.37-1.12-.22-.1.93-.69.85-1.31.8-1.08-.44.02-1.38-.45-1.96,0-.1,0-.21,0-.31,2.42-.55,4.77-2.18,4.81-3.74.41,1.25,1.04,1.9,1.75,2.57.09-.23.17-.33.16-.43-.12-.9-.24-1.82-.95-2.49-1.1-1.03,1.28-1.24.49-2.18,1.45-.21,1.28.92,1.32,1.71.04.84-.41,2.11,1.01.61.44-.46.5.46.92.27,0-.55-.17-1.08-.54-1.48-.29-.31-1.17-.24-.81-.92.24-.45.76-.74,1.5-.72,1.35.04.66-.64.23-1.13,0-.11,0-.22,0-.33.64-.36.59-1.91,1.93-1.08-.21-.97-.4-1.91-.28-2.87Z"/>
          <path class="cls-2" d="m53.98,77.02c.32-.03.64-.05.96-.08-.2-2.27.73-.81,1.42-.18-.39-1.75,1-1.65,1.64-1.64,1.72.02,2.4.02,3.55-.74,0,.22,0,.44,0,.66-.46.66.9.96.33,1.64-.22.22-.43.44-.65.66-.91.23-1.5.71-1.02,2.09-1.03-.81-.51-1.82-1.26-2.3-1.39.82-.18,2.16-.72,3.19.88-.99,1.03.21,1.7.26-.89.86-2.98-.61-2.67,1.7-.22.2-.51.17-.77.25-.75.23-.75.89-.86,1.49-.05.16-.09.38-.23.42-.9.28-2.51-1.22-2.4-2.27-.3.36-.17,1.05-.88.99-.51-.04-.78-.36-.93-.79-.11-.31-.17-.64-.54-.76.01-.71.56-.95,1.2-1.24-.97.04-1.63-.27-1.77-1.15-.1-.62.38-.83.92-.88.6-.13,1.18.22,1.84-.09.78-.37,1.03.19.92.92-.06.13-.24.17-.26.34.03-.1.09-.18.19-.24.13-.08.26-.11.4-.1.78.08,1.02.5.82,1.24-.09.34,0,.68.43.72.45.04.77-.2.79-.63.03-.63.28-1.39-.28-1.85-.48-.39-1.02-.08-1.48.28-.27.21-.5.15-.59-.21-.07-.58-.42-1.18.16-1.7Z"/>
          <path class="cls-2" d="m70.39,64.06c-.05.39-.37.52-.68.58-.23.04-.43-.15-.36-.39.09-.32.36-.56.69-.62.25-.04.35.18.36.42Z"/>
          <path class="cls-2" d="m61.89,76.68c-.07-.55-1.25-.88-.33-1.64.16.54,1.11.91.33,1.64Z"/>
          <path class="cls-2" d="m74.73,52.31c.1.33.21.66.31.99-.77-.1-1.37-.36-1.3-1.3.36,0,.74-.06.99.31Z"/>
          <path class="cls-2" d="m11.82,42.44c-.32.93-1.36.51-1.96,1.02-.34.29-.24-.61-.65-.68,0-.05,0-.11.01-.16.09-.46.35-1.12-.23-1.24-.73-.15-.19.77-.76,1.13v-1.7c.52-1.06,1.46-.7,2.3-.66.22.88.27,1.86,1.29,2.3Z"/>
          <path class="cls-2" d="m6.58,39.81c.11-.33.22-.66.33-.99.29.05.81-.08.78.29-.05.55-.77.39-1.11.69Z"/>
          <path class="cls-2" d="m6.25,42.12c.1-.54-.36-1.09,0-1.64.27,0,.51.06.65.32-.3.4-.08,1.05-.65,1.32Z"/>
          <path class="cls-2" d="m12.83,50.35c-.2.33-.2.66,0,.98-.06.52-.24.98-.66,1.32-.65-.94-1.18-.42-1.64.18-.6.79-1.18,1.54-2.53,1.35.67-.73.8-1.82,2.09-1.75-1.94-1.83-2-3.2-.23-3.74.27.39.85.28.95.54-.14-.19-.56-.34-.95-.54-.14-.58.5-.37.66-.66.97-.34.19-.98.21-1.47.01-.31-.19-.63.19-.83.12-.06.36-.1.43-.03.23.23,0,.49-.03.75-.12.77-.1,1.44.8,1.82.94.4-.35,1.64.7,2.06Z"/>
          <path class="cls-2" d="m11.18,54.63c0,.11,0,.23,0,.34-.25,1.12-.17,2.27-.4,3.38-.3,1.48-1.08,2.75-1.87,4.02-.46.01-.73-.25-.92-.63-.28-.75-.08-1.51-.11-2.27,0-.08,0-.15.01-.23.97-.75.13-1.81.39-2.69.71,0,.41.53.54.82q1.32-1.9,1.37-3.14c.33.14.66.27.99.4Z"/>
          <path class="cls-2" d="m8.22,61.54c.22.22.44.44.66.66.18.14.26.33.27.55,0,.15-.05.28-.11.42-.08.12-.19.22-.32.3-.36.18-.72.23-1.06-.05-.7-.56-1.51-.97-1.61-2.07-.09-.95-1.19-.96-1.78-1.46h0c-.16-1.03.81-.94,1.31-1.31.62.74,1.67-.05,2.31.66.49.71-.14,1.59.33,2.3Z"/>
          <path class="cls-2" d="m5.59,58.58c0,.86-1.17.57-1.31,1.31-.74-.5-.76-1.6-1.64-1.98,0-.33,0-.65,0-.98.12-.65-.59-1.11-.4-1.77.03-.33.11-.65.4-.86.85.81.44,2.17,1.31,2.96.22.22.53.2.8.28.21.07.38.21.52.38.01.27.08.51.33.66Z"/>
          <path class="cls-2" d="m6.57,56.61c-.67-1.13-1.68-2.19-.66-3.63.28.16.38.29.36.72-.04.81-.43,1.84.8,2.28.29.1.25.23-.51.63Z"/>
          <path class="cls-2" d="m7.57,47.72c.11,0,.22-.01.32-.02.95-.3.7.38.55.77-.16.44-.51.89-1.06.81-.65-.09-.29-.54-.17-.85.09-.25.24-.48.35-.71Z"/>
          <path class="cls-2" d="m5.26,57.93c-.22,0-.44,0-.65,0-.11-1.06.36-1.35,1.32-.99h0c-.22.33-.44.66-.66.99Z"/>
          <path class="cls-2" d="m5.91,43.75c-.38-.23-.3-.62-.33-.97.03-.4.22-.65.65-.64-.28.5-.35,1.05-.32,1.61Z"/>
          <path class="cls-2" d="m.97,53.96c-.01-.48,1.17-1.17-.31-1.41-.46-.08-.35-.57-.02-.88.98.49,2.61.43,1.98,2.31-.56.46-1.11.44-1.66-.02Z"/>
          <path class="cls-2" d="m.97,53.96c.55,0,1.1.01,1.66.02,0,.11,0,.22,0,.33,0,.33,0,.65,0,.98-.44.36-.88.36-1.33.02-.46-.36-.3-.88-.32-1.35Z"/>
          <path class="cls-2" d="m5.92,56.94c-.77-.12-1.07.4-1.32.99-.43-.01-.64-.24-.66-.65.44-1.42,1.17-1.14,1.98-.33Z"/>
          <path class="cls-2" d="m1.29,55.3c.44,0,.89-.01,1.33-.02-.2.55.57,1.09.01,1.65-.26-.57-.83-.72-1.32-.99,0-.21-.01-.43-.02-.64Z"/>
          <path class="cls-2" d="m4.92,42.77c-.95-.44-.63-.88,0-1.31.29.44.3.88,0,1.31Z"/>
          <path class="cls-2" d="m6.24,39.81c-.33-.04-.63-.1-.6-.53,0-.07.13-.2.18-.19.41.07.4.41.43.72h0Z"/>
          <path class="cls-2" d="m56.88,90.48c.45,1.32-.8,2.37-.59,3.66.01.08.03.15.05.23.09.72.08,1.41-.45,1.98-.83.91-1.03,2.2-1.95,3.1-.56.54-1.06.82-1.79.79-.53.41-.75,1.06-1.17,1.56-.41.48-.78.51-1.19-.02-.82-1.05-.86-4-.05-5.09.15-.25.44-.46.28-.79-.15-.31-.42-.14-.66-.08-.54.09-1.3,1-1.47-.37.69-.95.76-2.61,2.63-2.22.44.09.32-.47.45-.74.27-.57.49-1.42,1.33-1,.7.35.69,1.14.51,1.89-.07.28-.58.69-.3.68.91-.03.38,1.73,1.63,1.15.7-.33.95-.77,1.05-1.48.16-1.19-.17-2.59,1.25-3.31.16-.04.31-.02.45.06Z"/>
          <path class="cls-2" d="m56.62,89.52c-.03-.23-.56-.4-.28-.55.45-.25.73.18.95.55-.11.22-.21.45-.32.67-.27-.14-.36-.38-.35-.67Z"/>
          <path class="cls-2" d="m56.62,89.52c.27.14.32.4.34.67-.02.1-.05.19-.08.28-.09.02-.18.04-.27.05-.85-.34-.43-.67,0-1h0Z"/>
          <path class="cls-2" d="m56.62,89.53c-.09.33-.5.67,0,1-.84.55-.89,1.44-.97,2.3-.13,1.4.17,3.06-2.14,2.83-.27-.03-.31.74-.86.51-.34-.46.25-.65.29-1,.04-.29.04-.64-.22-.72-.52-.16-.15.36-.31.51-.24.21-.54.21-.75.05-.37-.3-.09-.58.13-.81.77-.78,1.07-1.59.27-2.55-.58.21-.63.75-.83,1.16-.29.6-.25,1.8-1.4.7-.24-.23-.41-.09-.44.17-.09.87-.97,1.12-1.33,1.77-.07-.03-.14-.05-.22-.08-.64-.48-.25-1.52-1.01-1.88.46.62.94,1.28-.09,1.89-.41.09-.77.04-1.06-.3-.16-.41-.44-.8-.26-1.28,0-.11,0-.22,0-.33.13-.12.15-.27.17-.44.24-2.29.34-2.34,2.1-1.08-.28-.81-1.52-.55-1.66-1.51.95-.43,1.19-1.82,2.45-1.84.13,0,.29.15.38-.08.23-.61.68-.74,1.13-.34.45.4.21.91-.12,1.3-.24.29-.54.54-.97.5-.21.06.11.3-.02.12-.02-.03.03-.1.12-.08.46.07.91-.78,1.4,0,.08.12.09-.14.1-.2.07-.78.34-1.37,1.26-1.33.99.61,1.21,1.6,1.28,2.93.26-.94-.43-1.74.34-2.31.41,0,.78.63,1.22.1.04-.05.11-.09.13-.17-.05.08-.11.15-.2.21-.19.11-.38.14-.58.05-.62-.52-1.43-.64-2.13-.99-1.19-.85-1.56-2.07-.99-3.32.3-.24.7-.24,1.02-.47,1.53-1.1,2.34-.82,3.01.98.29-.19.35-.54.56-.78.28-.97.61-1.93,1.18-2.78.22.11.44.22.66.33.39-.36.97.13,1.36-.34.18-.22.52.11.46.17-.54.62.17,1.99-1.25,2.09-.54.04-.73.8-.5,1.95.16.79.12,1.53-.18,2.23-.74-.06-.35-.85-1.01-.97-.2.83-.82,1.53-.72,2.54.4-.14.79-.28,1.17-.42Z"/>
          <path class="cls-2" d="m19.41,67.47c-.95.14-.87,1.1-1.32,1.65-1.93-.05-2.7-1.21-2.18-3.25.34-.57.65-1.2-.45-1.05-.58.08-.9-.11-1.26-.78.09.92.3,1.52.49,2.12.03.46.27.73.59,1.08.71.78.63,1.48-.57,1.71-.12-.04-.19-.22-.36-.16.18.01.24.14.3.29-.03.57-.38.85-.87,1.03-.5.12-.99.11-1.47-.13-.56-.46-.65-1.38-1.51-1.55.36-1.6-1.79-1.85-1.76-3.27.65-1.03,1.56-1.78,2.51-2.51.28-.21.76-.38.59-.86-.14-.41-.54-.26-.85-.22-.52.06-.77-.28-.68-.67.4-1.85.17-3.77.57-5.62.36-.02.57-.23.76-.53.26-.4.31-1.2,1.12-.81.46.22,1.15.46,1.24.81.12.46.05,1.26-.92,1.19-.21-.01-.56.41-.34.77.15.25.53.28.74.14.81-.58,1.84-.45,2.67-.92,0,.33-.03.63-.25.92-1.23,1.62-1.16,1.87.85,2.67-.7.65-1.43,1.17-1.43,2.28-.01,1.9,1.54.37,2.2,1.07.37.4.43-.45.38-.94-.07-.72.34-1.5-.42-2.09-.21-.16-.12-.5.03-.58,1.34-.71.3-1.35-.04-2.01.74-.41,1.29-.39,1.3.65,0,1.3.03,2.61-.05,3.91-.03.47-.1.85.51,1.17.29-.59.57-1.19.86-1.79-.06-.29.04-.41.33-.32.34.95-.4,1.97.35,2.97.32.43-.83.72-1.01,1.3.16.56-.21.53-.53.42-.36-.12-.7-.32-1.09-.13-.4.18-.75.4-.81.91.38.15.7-.23,1.06-.11.15.05.27.12.38.23.11.33.22.66.33.99h0Z"/>
          <path class="cls-2" d="m18.42,65.16c.34-.24.66-.94,1.05-.03.15.35.39.3.6.02.11.11.23.22.34.34.09.07.12.15.09.22-.03.07-.07.11-.1.11-.34.43-1.27-.35-1.32.66h-.16s-.16,0-.16,0c-.4-.37-.46-.82-.34-1.31Z"/>
          <path class="cls-2" d="m20.73,60.89c-.11.11-.22.21-.33.32-.44,0-.91.03-.95-.61-.02-.29.06-.58.38-.62.64-.07.84.36.9.9Z"/>
          <path class="cls-2" d="m20.41,65.83c0-.11,0-.22,0-.32.67-.51,1.19-.27,1.64.33-.55.95-1.1.48-1.65,0Z"/>
          <path class="cls-2" d="m11.19,55.29c.63,1.98.19,3.9-.31,5.91.52.33,1.07-.95,1.58-.01.35.64.83,1.01-.29,1.55-1.12.54-1.81,1.79-2.94,2.44-.41-.24-.62-.64-.84-1.04-.13-.47.17-.72.5-.95h0c.15-.1.28-.1.41.04-.02-.25-.32-.19-.41-.36,0-.22,0-.44,0-.66.44-2.08,1.9-3.86,1.7-6.13-.04-.41.23-.83.6-1.1,0,.11,0,.22,0,.32Z"/>
          <path class="cls-2" d="m55.63,84.92c-.07,1.06-.74,1.3-1.85,1.23.59-.67.86-1.32-.06-1.8-.83-.43-1.28-.11-1.62.68-.4.91-.72.08-1.07-.1-.07-.02-.14-.05-.22-.07-.59-.74-.77-1.81-1.78-2.22-.21-.12-.2-.24,0-.35.25-.61.92-.35,1.33-.65.1,0,.21,0,.31-.01.3.09.72-.81.82-.07.08.64.01,1.33.75,1.27.61-.05.54-.8.54-1.35,0-.11.13-.23.19-.34.11.05.2.08.2.09-.58,1.8,1.31,2.05,1.93,3.1,0,0,.11-.04.13-.07.04-.1.05-.21.08-.31.79.11.44.59.32.99Z"/>
          <path class="cls-2" d="m51.69,88.55c-.64.41-.78,1.11-1.04,1.74-.15.36,0,.93-.61,1.01-.13.02-.37-.05-.41-.15-.21-.52.53-.63.49-1.14-.5-.04-.92.13-1.28.46-.16.15-.14.61-.52.34-.14-.1-.19-.37-.22-.58-.03-.28.06-.55.41-.58.15-.01.32.1.47.09.63-.02.74-.56.91-1,.04-.11-.03-.35-.12-.42-.65-.44-.51.69-1.04.54-.19-.42-1.08.21-.98-.65.11,0,.21,0,.32,0,.31-.38.13-.83.16-1.25.03-.35-.26-.82.2-1.02.5-.23.77.22,1.06.57.31-.73.37-1.72,1.54-1.59h.01c-.44,1.33-.13,2.43.98,3.3.08.3-.03.41-.33.33Z"/>
          <path class="cls-2" d="m51.02,84.92c-.8.46-1.29,1.1-1.09,2.05-.73.05-.84-.6-1.34-.82-.51.6.16,1.53-.53,2.06-.19-1.95.22-3.8.98-5.58,1.98-.38,1.47,1.4,1.98,2.29Z"/>
          <path class="cls-2" d="m53.98,77.02c0,.66.01,1.32.02,1.97.09.08.12.15.09.22-.04.07-.07.1-.1.1-.11,0-.22,0-.32,0h0c-.07-.44.03-1.25-.75-.67-.84.62-1.3,0-1.88-.32,0-.27.05-.52.32-.65,1.01.44,1.5-.25,1.9-.94.23-.4.28-.92.41-1.38.74.43.25,1.1.32,1.66Z"/>
          <path class="cls-2" d="m46.08,90.53c.54.47,1.29.44,1.88.87.55.4.58.69.23,1.13-.45.57-.72.04-.98-.24-.29-.31-.53-.66-.89-1.13-.37.95-.63,1.64-.9,2.33.07-1-.21-2.04.34-2.99.12-.09.22-.07.31.04Z"/>
          <path class="cls-2" d="m46.08,90.53c-.1-.02-.2-.03-.31-.04.49-.9,1-1.79,1.97-2.27.33.22.65.44.98.65-.66-.08-.89.31-1.15.84-.27.55-.89.71-1.48.82Z"/>
          <path class="cls-2" d="m43.79,93.49c.11-.12.21-.23.32-.35.53.04.53,1.11,1.31.66.06.35.97.41.34.99-.2.45-.53.61-1,.5-.73-.38-1.13-.94-.96-1.8Z"/>
          <path class="cls-2" d="m50.37,81.63c-.44.22-.88.43-1.32.65.13-.85.8-.6,1.32-.65Z"/>
          <path class="cls-2" d="m54.64,72.41c.35,1.13-.48,1.82-.99,2.63-.82.54-1.05-.09-1.32-.66-.29-.44-.29-.88,0-1.32.79-.12,1.61-.14,2.3-.65Z"/>
          <path class="cls-2" d="m30.94,82.29c.22.14,1.04-.19.55.45-.35.45-.4.1.02.64,1.23,1.57,2.34-.35,3.39.23.14.07.25.17.34.3.25.43.27.86-.08,1.25-.08.06-.16.13-.24.2-.05.05-.1.1-.09.12.06.16.06-.04.1-.02.67-.13.82.4,1.06.82.02.16-.04.28-.17.38-.54.55-.39,1.3-.66,2.17.39-.88.16-1.74.78-2.3,1.73,1.54.74,3.86-.94,4.94-.51.19-1.03.35-1.48-.13-.2-.52-.59-.68-1.12-.55-.91-.46-1.68-.48-2.27.54-.34.59-.88.53-1.4.18-.42-.35-.79-.74-.97-1.27.26-.71-.67-1.28-.25-2.01,1.63-.75,1.89-.64,2.08.78,0,.04.16-.17.26-.25.18-.42-.23-.54-.4-.78-.89-.61-.9-1.05.23-1.32.59-.15,1.2.04,1.82-.17-.91.11-1.23-.36-1.17-1.14.04-.46.13-.89-.47-1.04-.55.06-1.18.16-1.13-.67.04-.68.41-1.21,1.12-1.42.37-.11.69.35,1.07.1Z"/>
          <path class="cls-2" d="m30.94,82.29c-.74.41-1.94.27-1.92,1.65.43.25.6-.29.93-.34.72.98.46,1.87-.41,2.54-.64.5-1.1,1.18-1.79,1.61-1.26.29-1.89-.74-2.73-1.3-.33-.28-.72-.46-1.11-.64-.2-.13-.32-.31-.34-.55.18-.97.92-.87,1.64-.92,1.24-.09,1.95-.7,1.81-2.04-.09-.12-.16-.25-.2-.39-.03-.15-.01-.3.03-.44.05-.06.1-.11.15-.17.33-.18.68-.34,1-.55.65-.43,1.25-1.92,1.86.12.24.79,1.17-.1,1.77.1.07.08.09.15.06.22-.03.07-.06.11-.08.11-.22.33-.77.43-.66.98Z"/>
          <path class="cls-2" d="m16.13,74.38c2.4.05,2.72.31,3.28,2.66.05.21.1.61.11.61,1.8-.26,1.14,2.16,2.52,2.33.09.13.11.26.07.41-.07.2-.19.51,0,.59,1.79.82,1.18,2.61,1.65,3.96-.76.52-1.2.03-1.61-.52-.46-.6-.72-1.35-1.43-1.74-.38-.23-.7-.54-.87-.94-.86-1.94-2.32-3.48-3.48-5.23-.23-.36,0-.89-.45-1.17-.12-.08-.23-.17-.33-.27-.17-.25-.33-.51-.07-.79.23-.1.43-.09.61.1Z"/>
          <path class="cls-2" d="m24.03,70.43c.54.39,1.86.26.95,1.59-.32.47.18.71.59.57,1.26-.44,1.05.45,1.09,1.13-.12,1.52-1.13,2.37-1.62,1.6-.61-.96-2.04-1.23-2.03-2.81.01-1.03-.13-1.76,1.01-2.09Z"/>
          <path class="cls-2" d="m16.12,65.83c-.38,1.72.58,2.63,1.97,3.29-.04.65-.51.66-.98.66q-1.32.78-1.62,2.4c-1.66-.06-1.75-.2-1.68-2.39.43-.19.66-.51.67-.99h0c.55-.07.99-.3.92-.92-.07-.66-.61-.28-.91-.39-.74-.27.13-.86-.01-1.32.41-.78.97-.85,1.64-.34Z"/>
          <path class="cls-2" d="m23.39,79.98c.55-.31,1.11-.61,1.72-.95.06.77.11,1.43.16,2.17.6-.08,1.27-1.03,1.72.1h0c-.25.22-.43.44,0,.66h0c.22,1.31-.82,1.61-1.66,1.83-.77.2-1.45-.13-1.58-1.14-.08-.62-.75-1.01-.88-1.66-.02-.44.12-.79.52-1Z"/>
          <path class="cls-2" d="m15.45,72.09c0-1.17-.39-2.63,1.67-2.32-.02.58-.42.78-.87,1.05-.74.44-.13,1.1.02,1.57.15.46.78.51,1.04.04.53-.91.64.07.87.18.69.34.17.75-.08,1.02-.6.66-.44-.26-.57-.29-.82-.21-1.27.23-1.4,1.04-.22,0-.44,0-.66,0-.48.22-.75-.23-1.12-.36-.12-.08-.21-.18-.29-.3-.04-.22.03-.42.14-.61.24-.56.69-.85,1.24-1.03Z"/>
          <path class="cls-2" d="m36.53,78.33c0,.21.01.43.02.64.72.91.48,1.83.04,2.76-.31.26-.63.48-1.05.23-.06-1.46-1.64-2-1.97-3.3h0c0-.11,0-.22,0-.33.15-.25.39-.32.66-.32.33.25.39.68.65.98.93.79.98-.21,1.31-.64.11,0,.22,0,.34-.01Z"/>
          <path class="cls-2" d="m35.55,81.96c.33-.11.66-.22.99-.33.36.17.75.07,1.13.1.61.05.82.54.96.99.18.57-.31.69-.72.87-.97.44-1.9,1.17-3.01.35,0-.11,0-.22,0-.33-.45-.82.25-1.17.66-1.65Z"/>
          <path class="cls-2" d="m30.61,76.03c.91-.63.95-.02.98.67.03.55-.66,1.1,0,1.64v1.82c-.32.22-.55-.46-.97-.2-.78.48-.78-.21-.5-.5,1.05-1.06.55-2.26.49-3.44Z"/>
          <path class="cls-2" d="m26.5,79.65c.56-.62,1.03-1.12,1.47-1.65.21-.25.35-.62.74-.33.28.21.28.57.21.9-.19.87-1.25,1.37-2.42,1.08Z"/>
          <path class="cls-2" d="m19.42,67.47c.84.8,1.41-1.02,2.29-.15-.39.76-.97,1.63-1.84,1.65-.76.01-.32-.97-.45-1.5h0Z"/>
          <path class="cls-2" d="m31.6,81.3c0-.11.01-.22.02-.33,1.04-.75,1.74-.56,2.12.99-.73-.56-1.64.45-2.14-.66Z"/>
          <path class="cls-2" d="m25.03,77.65c-.46-.5-.83-.87-.34-1.38.2-.21.56-.32.72-.07.3.48-.05.9-.38,1.44Z"/>
          <path class="cls-2" d="m22.97,75.81v1.75c-.96-.73-.24-1.29,0-1.75Z"/>
          <path class="cls-2" d="m23.39,79.98c-.11.33-.23.66-.34.99-.7.03-.6-.5-.64-.93.01-.28.09-.53.31-.71.43.01.63.25.67.66Z"/>
          <path class="cls-2" d="m33.58,78.66c-.06.45.13.94-.27,1.53-.54-.71-.4-1.15.27-1.53h0Z"/>
          <path class="cls-2" d="m22.72,79.33c0,.21-.01.43-.02.64-.21.2-.08.66-.49.69-.15,0-.21-.18-.17-.34,0-.11,0-.22,0-.34q.06-.93.67-.65Z"/>
          <path class="cls-2" d="m35.55,77.67c.44.01.65.24.65.67-.43-.02-.99.09-.65-.67Z"/>
          <path class="cls-2" d="m34.89,78.99c-.43-.18-.65-.51-.65-.98.66.03.66.5.65.98Z"/>
          <path class="cls-2" d="m65.18,62.86c.57,1.02.58,2.13.65,3.57-1.28-1.47-1.52.28-2.29.38.09-.99,1.55-1.83.33-2.96.84.21.92-.6,1.32-.99Z"/>
          <path class="cls-2" d="m53.98,79.32c0-.11,0-.22.01-.32.29-1.31,1.47-.83,2.26-1.09.31-.1.34.33.35.6.04.65.03,1.31.11,1.96.06.49,0,.94-.49,1.07-.51.14-1.14.27-1.58.09-.49-.2-.5-.94-.22-1.31.54-.73-.06-.77-.44-1Z"/>
          <path class="cls-2" d="m55.63,84.92c-.01-.36.04-.74-.32-.99-.25-1.11.24-1.73,1.3-1.97.2,1.16-.56,2.01-.99,2.96Z"/>
          <path class="cls-2" d="m53.66,79.32c-.17.27.5.77-.21.85-.19.02-.66.1-.64-.26.02-.46.46-.55.86-.58h0Z"/>
          <path class="cls-2" d="m9.86,68.51c-.52-.51-.61-1.35-1.34-1.69-.04-.61-1.16-.76-.67-1.6-.09-.14-.16-.28-.2-.44-.02-.25.04-.47.22-.65.11-.03.23-.04.31.03.14.11.24.47.41.03.66.04.63.53.65.99.24.67.44,1.28,1.44.91.52-.19.73.36.34,1.18-.21.44-.44.97.2.95,1.36-.05.88.89.99,1.52-.05.05-.11.1-.16.14-.06-.04-.12-.08-.18-.11h0c-.75-.29-1.39-.73-1.98-1.27Z"/>
          <path class="cls-2" d="m6.57,63.2c-.25-.15-.32-.39-.33-.66-.19-.96-.93-1.45-1.64-1.98-.11-.22-.22-.44-.33-.65,1.29.11,2.35.41,2.35,2.06,0,.79,1.55.46,1.29,1.57-.06.03-.13.06-.19.09-.39-.12-.84-.09-1.15-.42Z"/>
          <path class="cls-2" d="m4.61,60.55c1.13.18,1.82.72,1.64,1.98-.57-.41-.86-1.17-1.63-1.33,0-.22,0-.44,0-.65Z"/>
          <path class="cls-2" d="m9.87,48.7c.71-.17,1.27.95,2.08-.1-.09,1-.59,1.27-1.02.98-.35-.24-1.32.09-1.06-.88h0Z"/>
          <path class="cls-2" d="m8.22,61.54c-.62-.69-.21-1.54-.33-2.3.97.65.03,1.56.33,2.3Z"/>
          <path class="cls-2" d="m8.58,64.19c-.06.23-.12.47-.17.7-.17-.24-.33-.48-.5-.72-.19-.21-.22-.43,0-.64,0,0,.01,0,.01,0,.32-.11.65-.23.97-.34-.1.33-.2.67-.3,1Z"/>
          <path class="cls-2" d="m8.88,62.86c.42.02.77.17,1.08.49-.48.32-.75-.07-1.08-.16,0-.11,0-.22,0-.33Z"/>
          <path class="cls-2" d="m44.78,95.13c.33-.11.65-.22.98-.33.24.37.62.32.98.33.09.08.12.17.08.25-.03.08-.06.12-.09.12-.13.28-.89.64.11.79.31.05.64.03.92.2.24.25.2.52.07.81-.39.25-.66.53-.37,1.03-.11.64-.87.67-1.1,1.11-.53,1-.35,1.96.52,2.86.03-.57-.13-1.16.23-1.46.98-.83.54-1.75.32-2.68-.19-.34-.02-.55.27-.71.35-.39.41-.75-.1-1.06-.51-.16-1.15-.23-.73-1.04.42-.2.81-.17,1.18.11h0c.44,1.12.88-.39,1.32,0,.06.02.13.04.19.05.37.26.49.63.47,1.06,0,.07,0,.13,0,.2-.06.63-1.51,1.28.02,1.92.09.04.17.39.15.41-1.74,1.02.26,1.82,0,2.75.81-.63.81-1.76,1.81-2.1.57.59.5,1.3.35,2.02-.31.84-.95,1.29-1.82,1.27-.82-.02-1.27.4-1.62,1.04-.11.12-.3.32-.37.27-.8-.47-1.26.26-1.86.49-.99-.22-1.94-.49-1.8-1.84.02-.22-.15-.35-.36-.48-2.37-1.51-2.58-2.79-.69-4.83.57-.61.51-1.27.58-1.96.05-.24.16-.45.37-.6Z"/>
          <path class="cls-2" d="m55.63,96.12c0,1.3-.38,2.49-1,3.62.21.16.23.36.17.59-.36.79.12,1.69-.28,2.48-.04.15-.12.27-.22.38-.44.26-.81.68-1.4.56-.55-.44-1.06-.9-.88-1.71v-2.3c1.68.08,2.18-1.23,2.82-2.38.24-.43-.03-1.19.8-1.24Z"/>
          <path class="cls-2" d="m49.38,95.46c.46-.5.89-.35,1.17.15.31.55-.04.91-.51,1.16-.29-.4-.02-1.09-.66-1.32Z"/>
          <path class="cls-2" d="m51.69,88.55c.11-.11.22-.22.33-.33.9-.17,1.48.32,1.97.98-.09.11-.19.12-.31.02-.39.26-.48.74-.23.99.73.73-.06,1.11-.28,1.89-.55-1.32-1.02-2.44-1.48-3.55Z"/>
          <path class="cls-2" d="m48.05,95.45c-.44,0-.87,0-1.31,0h0c0-.11,0-.22,0-.33,1.16-1.07-1.13-1.41-.53-2.38,1.38.41,1.6,1.57,1.85,2.7Z"/>
          <path class="cls-2" d="m54.65,89.2c0-.48-.05-.99.63-1.25.09.61-.3.91-.63,1.24h0Z"/>
          <path class="cls-2" d="m53.68,89.21c.1,0,.2-.01.31-.02.22,0,.44,0,.66.01h0c-.21.33-.37.75-.86.71-.06,0-.07-.45-.11-.7Z"/>
          <path class="cls-2" d="m16.12,65.83c-.58-.03-1.14.01-1.64.34-1-.53-.38-1.69-.92-2.41-.11-.15.06-.42.31-.47.42-.1.59.21.72.5.24.57.36,1.22,1.06.27.28-.38.73-.13.78.36.05.49.85,1.17-.3,1.41Z"/>
          <path class="cls-2" d="m15.45,72.09c-.33.43-.66.86-.98,1.29-1.2-.92-2.41-1.84-2.3-3.6l.03-.04c.54.01,1.08.02,1.62.03.36.9.13,2.21,1.63,2.31Z"/>
          <path class="cls-2" d="m18.42,65.16c.47.35.29.86.34,1.31-.66-.06-1.31,1.41-1.81.25-.28-.64.52-1.46,1.47-1.56Z"/>
          <path class="cls-2" d="m10.75,65.19c.05-.73.26-1.11.93-1.28.05.69-.12,1.09-.93,1.28Z"/>
          <path class="cls-2" d="m14.48,68.8c-.27.13-.55.27-.82.4-.02-.1-.08-.23-.04-.28.24-.34.51-.58.86-.12h0Z"/>
          <path class="cls-2" d="m34.89,83.93c.98-.1,1.97-.08,2.77-.85.15-.15.82.37.68-.39-.08-.47-.38-.77-.93-.57-.24.08-.51.19-.75.18-.84-.05-.02-.45-.12-.67,0-.89,0-1.77.01-2.66.86.16.86,1.02,1.26,1.56,1.04,1.37,2.11,2.72,2.69,4.37.24.31.52.6.38,1.05-.99.11-1.74-.24-2.12-1.19-.17-.43-.24-.44-.75,0-1.17-.07-.7,1.35-1.48,1.65-.24.07-.45.03-.64-.14-.59.16-.41-.82-.99-.67-.19-.22-.19-.44,0-.66.5-.33.1-.66,0-.99Z"/>
          <path class="cls-2" d="m40.81,85.91c-.1-.34-.21-.67-.32-1.01.22,0,.43.02.65.03.14.65.28,1.31.42,1.96.09,1.31.17,2.62.26,3.93.32.77.1,1.52-.15,2.24-.44,1.3-2.09,1.6-3.05.61-.38-.39-.4-.88-.06-1.18,1.14-.99,1.01-2.33,1.11-3.62.59-.39.82-.96.74-1.64-.07-.52,0-.96.39-1.32Z"/>
          <path class="cls-2" d="m39.82,88.88c.33,1.24.62,2.45-.61,3.42-.28.22-.73.51-.54.91.34.69,1.18.34,1.74.67.37.23.61-.11.7-.44.24-.88.85-1.65.72-2.63.24.82.47,1.65.72,2.48.27.91.74.71,1.24.2.33.55.66,1.09.99,1.64,0,.21-.01.43-.02.64-.2.13-.56-.07-.57.47-.03,1.28-.86,1.77-2.07,1.72-.21-.07.05.02-.16-.02-.66-.1-1.34-1.1-1.93.38-.38.97-1.19.61-1.72-.83-.85.84-1.95,1.31-2.94,1.93-.26.16-.58.18-.71.54-.16.46-.29,1.02-.99.76-.54-.21-.94-.56-.83-1.23.04-.22.02-.43.02-.65-.05-.47.05-.97-.29-1.38-.1-.11-.18-.23-.25-.35-.18-.42-.16-.85.38-.78.64.08.24-.4.4-.55.14-.28.38-.44.67-.52.93-.19.31-.8.33-1.24,0-.15.06-.28.13-.41.59-.7.53-1.59.66-2.42,1.39-1.17,1.71-2.65.98-4.6h0c0-.11,0-.21,0-.32.22,0,.43-.01.65-.02.24-.21.65-.22.68.02.15,1.17,1.2,1.47,1.89,2.11.28.11.55.23.71.51Z"/>
          <path class="cls-2" d="m33.25,95.78c-.19.24.7,1.11-.51.79-.52-.14-.15.33-.15.53.55.95-.06,1.25-.82,1.47-.17.02-.33-.01-.48-.09-.34-.23-.57-.6-.59-.95-.06-1.42-.86-2.37-1.76-3.36-.84-.92-.67-1.25.52-1.49-.5-.14-1.18-.08-1.28-.79-.07-.49.17-.86.78-.72,1.3.75.9-1.27,1.85-1.16.09,0,.23-.43.39-.76.53.43.53,1.35,1.38,1.26.11.11.18.25.21.4.01.22,0,.44-.11.63q-.9,1.65-.6,3.49c.26-.41.51-.92,1.03-.64.63.34.46.88.13,1.38Z"/>
          <path class="cls-2" d="m21.06,82.29c.47.62.99,1.2,1.4,1.86.31.49.61.86,1.24.77.09.07.13.14.1.21-.03.07-.06.11-.09.11.1.11.21.23.31.34.25.34.73.32.99.64,1.04.12,1.5,1.38,2.62,1.33.21.22.2.44,0,.66-.14.69.71,1.22.33,1.95.32,1.27-.66.86-1.25.97-.15,0-.3,0-.45-.04-.15-.04-.28-.1-.4-.19-.52-.6-.74-1.4-1.35-1.94-.09-.12-.17-.24-.25-.37-.47-1.02-.98-1.94-1.99-2.64-.97-.68-1.47-1.82-1.56-3.07.03-.24.16-.43.32-.61Z"/>
          <path class="cls-2" d="m27.65,88.21c0-.22,0-.44,0-.66.15-.62.67-.93,1.11-1.25.98-.68,1.4-1.54,1.19-2.71.45.02.67.31.82.68.12.3,1.61,1.92,1.97,2.03-1.01.58-2.1.51-3.08.82-.47.15-.48.13-.02.76.29.27.88.35.66.97-.38.17-.6.46-.69.86-.06.25-.21.39-.47.3-.22-.08-.4-.3-.26-.51,1.36-2.09-.51-1.16-1.21-1.31Z"/>
          <path class="cls-2" d="m26.66,90.85c.38-.35,1.32.38,1.32-.69.33.34.65.67.98,1.01-1.51,1.29.47.98.71,1.56-1.22.09-1.17.73-.36,1.23,1.72,1.06,1.72,2.79,1.97,4.45-.05.05-.1.11-.15.16-.13.07-.27.1-.42.11-.23-.02-.43-.11-.57-.3-.07-.13-.11-.28-.13-.43-.13-1.49-1.17-2.46-2.02-3.54-.09-.12-.16-.26-.22-.4-.11-1.14-1-2.01-1.11-3.15Z"/>
          <path class="cls-2" d="m34.9,91.17c.7.69.34,2.09-.67,2.64-.26-.21-.28-.49-.26-.79.07-.66-.85-.42-.89-.97-.04-.15-.04-.3,0-.45.09-.23.26-.37.51-.41.44.3.88.02,1.32,0Z"/>
          <path class="cls-2" d="m35.88,86.57c-.03.48-.03.96-.11,1.42-.07.42-.22.82-.36,1.35-.64-1.14-.84-2.08.47-2.77h0Z"/>
          <path class="cls-2" d="m34.21,86.95c-.03.34-.09.74-.61.7-.26-.02-.6-.17-.52-.48.09-.32.32-.74.59-.85.36-.15.53.22.53.63Z"/>
          <path class="cls-2" d="m33.57,91.18c-.11.11-.22.22-.32.33-.36-.08-.45-.43-.66-.66,0-.11,0-.22,0-.33.31-.37.71-.46,1.07-.17.31.25,0,.55-.09.83Z"/>
          <path class="cls-2" d="m30.29,88.87c-.22-.33-.44-.65-.66-.98.69,0,1.31.06.66.98Z"/>
          <path class="cls-2" d="m34.89,84.92c0,.22,0,.44,0,.66-.02.2-.03.41-.07.81-.35-.65-.35-1.07.06-1.46Z"/>
          <path class="cls-2" d="m23.71,85.24c0-.11-.01-.21-.02-.32-.56-.77-1.08-1.51-.71-2.58.18-.54-.34-.71-.82-.7-.81.01-.66-.72-.82-1.15-.06-.17.44-.15.69-.17.45.33.37-.35.66-.35.04.36-.04.76.35,1,.41.21.26,1.18,1.12.79.22-.1.47.13.3.34-.36.47-.75,1,.03,1.26.54.18,1.25.21,1.71-.49.21-.32.78-.38.78-.92.75.4,1.21.48.33,1.58-.94,1.18-1.75,1.41-3.02,1.21-.17-.03-.39.32-.59.5Z"/>
          <path class="cls-2" d="m26.99,81.96c-.37.11-.94.58-1.07.1-.17-.66.6-.63,1.07-.76,0,.22,0,.44,0,.66Z"/>
          <path class="cls-2" d="m25.02,86.22c-.48.02-.95,0-.99-.64.48,0,.94,0,.99.64Z"/>
          <path class="cls-2" d="m16.45,76.36c-.72-.19-.63-.79-.66-1.32,1.48-.2,1.09.55.66,1.32Z"/>
          <path class="cls-2" d="m15.79,75.05c-.32,0-.64,0-.96,0-.26-.03-.43-.17-.55-.39-.11-.32-.08-.62.15-.89.53-.1.69.41,1.03.63.11.22.21.44.32.66Z"/>
          <path class="cls-2" d="m7.9,63.53c0,.21,0,.43,0,.64,0,.22-.01.45-.02.67-.44-.55-.87-1.09-1.31-1.64.51-.16.97-.14,1.33.33Z"/>
          <path class="cls-2" d="m42.15,97.77c1.58-.59,1.75-.84,1.78-2.7.28.24.55.47.83.71.88,1.63-.86,2.15-1.39,3.16-.6,1.14-.05,2.81,1.2,3.1.39.09.94.17.78.59-.52,1.41.71,1.52,1.39,2.05-.58,1.17-1.4.31-2.12.25-.48-.26-.45-.85-.8-1.2-1.79.99-1.91,1.25-1.55,3.19.18.94-.42,1.47-1.71,1.53-.12-.09-.2-.22-.25-.36-.68-1.24-.69-2.42.28-3.53.63-.71.97-1.43.2-2.28-.22-.24-.35-.74-.13-.91,1.2-.93,1.1-2.36,1.49-3.59Z"/>
          <path class="cls-2" d="m44.44,104.68c.77-.23,1.54.44,2.3,0,.42-.92,1.31-.44,1.97-.66.21-.19.43-.19.67-.06.24.74-.4.96-.78,1.33-.38.32-.75.72-1.22.79-.92.15-1.17.51-1.1,1.49.06.91-.81,1.68-1.6,1.78-.99.12-1.09-.86-1.31-1.71-.34-1.32.04-2.22,1.07-2.97Z"/>
          <path class="cls-2" d="m45.5,100.9c.39-.58-.05-1.31.25-1.63.45-.5,1.17-.98,1.81-1.04.57-.05.2,1.38,1.21,1.3-.05.09-.08.22-.16.27-1.11.67-1.65,1.53-1.09,2.86.04.09-.45.72-.68.35-.44-.71-1.3-1.2-1.33-2.1Z"/>
          <path class="cls-2" d="m49.38,104.02c-.22,0-.44,0-.66,0,.14-1.01.5-1.73,1.73-1.35.66.2,1.06-.36,1.56-.62.33.55.66,1.1.99,1.65.64.28.72.8.63,1.4-.04.15-.1.3-.17.43-.05.09-.11.18-.17.26q-.98,1.51-2.33.27c-.06-.14-.08-.29-.04-.44.5-1.3.06-1.76-1.54-1.6Z"/>
          <path class="cls-2" d="m47.73,96.45c-.31.06-.62.09-.91.17-.41.11-1.01.31-1.08-.18-.08-.51.22-1.12,1.01-.98h0c.33.33.66.66.99.99h0Z"/>
          <path class="cls-2" d="m47.73,96.44c.24.04.68.06.69.14.07.49-.36.64-.7.85h0c0-.33,0-.66,0-.99h0Z"/>
          <path class="cls-2" d="m49.38,95.46c.86.12.6.8.66,1.32-.22-.44-.44-.88-.66-1.32Z"/>
          <path class="cls-2" d="m47.73,97.43c-.11.22-.22.44-.33.66-.26-.16-.65-.29-.38-.69.2-.29.47-.04.71.03h0Z"/>
          <path class="cls-2" d="m51.03,105.99c.6-.07,1.04.13,1.2.91.25-.73.46-1.32,1.1-1.57.4.21.41.77.94.98.8-.44.18-1.93,1.4-2.1.92-.76,1-1.83,1.09-2.9-.02-.22.02-.43.21-.57.32,0,.64,0,.96,0,0,.44.01.88.02,1.32-.68,1.7-.2,3.6-.95,5.28,0,0-.05-.02-.05-.02-.56,1.07-.74,2.31-1.47,3.31-.24.56-.7.97-.99,1.5-.46.45-.29,1.38-1.15,1.53-.26-.11-.39-.38-.63-.51-1.96-1.13-2.55-2.6-1.8-4.7.16-.46.19-.79-.07-1.21-.28-.43-.45-.9.18-1.22Z"/>
          <path class="cls-2" d="m56.96,100.73c0,.21-.01.43-.02.64-.11.19-.28.31-.47.41-.39.16-.44.54-.56.87-.08.26-.16.53-.23.79-.26.45.08.66.37.88.05.14.01.26-.11.35-.66-.07-.73.21-.72.84,0,.6-.28,1.55-.89,1.53-.83-.03-1.1-.88-1.01-1.71h0c.48-.7.62-1.55.98-2.31h0c.44-.84.27-1.75.32-2.64,0-.21,0-.43-.01-.64.81.26,1.29,1.29,2.34.99Z"/>
          <path class="cls-2" d="m54.31,103.03c.61,1.17-.2,1.73-.98,2.31.03-.58-.02-1.14-.33-1.65.37-.36.71-.77,1.31-.66Z"/>
          <path class="cls-2" d="m54.64,100.38c.26.93.64,1.87-.32,2.64-.08-.48.15-2.3.32-2.64Z"/>
          <path class="cls-2" d="m52.87,101.51c.4.07.43.29.47.49.04.18.06.35.12.67-.53-.34-.75-.62-.58-1.16Z"/>
          <path class="cls-2" d="m39.82,88.88c-.33,0-.65,0-.98,0-.37-1.18-1.22-2.19-1.15-3.53.02-.27-.07-.54.16-.75.25-.34.47-.7.75-1,.12-.13.44-.24.57-.17.43.22-.05.4-.07.61-.15,1.26,1.12,1.27,1.71,1.88-.12.65-.25,1.43-.11,1.95.26,1.03-.37.88-.88,1.02Z"/>
          <path class="cls-2" d="m37.86,84.59c0,.84,1.16,1.55.29,2.49,1.66.04.7,1.1.7,1.78-.56-.24-.48-1.44-1.56-.97-.53.23-.27-.24-.21-.43.16-.56.27-1.09-.53-1.23.1-.47.26-.94.29-1.42.1-1.31.66-.26,1.02-.22Z"/>
          <path class="cls-2" d="m42.15,97.77c.27,1.36.4,2.65-1.08,3.5-.51.29-.15.73.11.93,1.37,1.06.59,1.77-.36,2.48-.78.66-1.08,1.44-1.19,2.52-.14,1.48-.76,2.92-1.72,4.14-.23.11-.45.1-.67-.03-.34-1.2-.23-2.34.48-3.42-.26.29-.3.82-.78.75-.45-.07-.63-.55-.9-.88-2.25-2.75-3.66-5.9-4.45-9.34.41-.38,1.19-.47.99-1.31.11,0,.22,0,.32,0,.4.49-.07,1.15.33,1.64.48.47-.78,1.69.87,1.62-.41-1.92,1.65-1.49,2.52-2.28.39-.35,1.03-.79,1.59-1.13.29-.18.68-.29.92-.07.48.43-.15.43-.31.63-.28.35,0,.64.19.85.38.4.65-.08.75-.28.65-1.27,1.45-1.13,2.36-.32Z"/>
          <path class="cls-2" d="m32.59,90.85c.43.01.64.24.66.66,0,.11-.01.21-.01.32-.27.94.5.83,1,.99,0,.33,0,.66-.01.99h0c-.17.54.27,1.19-.32,1.65-.22.11-.44.22-.67.33-.03-.37.09-.77-.22-1.13-.69.06-.62.78-.9,1.19-.7-.71-.13-2.01-1.27-2.42.77-.29.07-1.56,1-1.63.73-.06.36-.74.74-.94Z"/>
          <path class="cls-2" d="m34.66,97.97c-.51-.62-.58-1.14-.21-1.62.17-.22.37.07.53.21.73.61,0,.89-.32,1.41Z"/>
          <path class="cls-2" d="m33.91,95.45c.07-.56-.22-1.18.32-1.65.4.55.82,1.11.37,1.81-.04.07-.45-.1-.69-.16Z"/>
          <path class="cls-2" d="m40.06,95.95c-.5-.6-.71-1.06-.24-1.76.48.56.34,1.07.24,1.76Z"/>
          <path class="cls-2" d="m33.24,98.75c-.53-.46-.25-1.09-.33-1.64.54.46.26,1.09.33,1.64Z"/>
          <path class="cls-2" d="m31.6,98.41c.45.24.96.57.93,1.07-.12,1.95,1.06,3.49,1.81,5.05.64,1.33,1.93,2.43,2.68,4.1.19-.79.31-1.3.45-1.91.58.22,1.17.56.74,1.14-.78,1.04-.42,2.35-1,3.4-.08.02-.15.04-.23.06-.89-1.4-1.96-2.71-2.53-4.29-.15-.41-.4-.62-.71-.84-1.29-1.04-.98-2.84-1.93-4.05.14-1.28-.87-2.38-.58-3.68l.03-.04c.11,0,.21,0,.32,0Z"/>
          <path class="cls-2" d="m34.24,92.82c-.38.12-.77.53-1.14.12-.32-.36-.23-.78.14-1.1.13.22.21.53.56.42.71-.23.6.15.44.57Z"/>
          <path class="cls-2" d="m44.44,104.68c.03.1.12.29.09.3-1.29.81-.6,2.07-.75,3.15-.09.66.43.76.74.88.8.31.32-.32.35-.58.1-.82.66.18.81-.19.31-.78.92-1.66-.69-2.1,1.37-.07,2.5-.28,3.38-1.13.06.04.12.08.19.12.56.73-.01,1.25-.34,1.82-.5.55-1.26.92-1.22,1.99.44-.68.68-1.46,1.55-1.49.43-.02.9-.13,1.2.28.28.4.13.84-.04,1.24-.39.87-.34,1.68.15,2.39.05.07-.01.21-.06.31-.7.66-2,.88-1.14,2.47.33.62-.91.8-1.6.87-.31,0-.61-.03-.91-.11-1.33-.69-1.28,1.04-2.12,1.21-1.08.25-1.84-.27-2.5-1.04q-2.25-1.47-1.75-4.14c.14-.75.33-1.5.22-2.28.06-.25.18-.42.48-.36.95.09,1.4-.42,1.54-1.29-1.51.05-.48-1-.48-1.39.01-1.44,1.61-1.76,2.27-2.79.14-.21.64.07.56.32-.19.56.42,1.02.09,1.54Z"/>
          <path class="cls-2" d="m40.16,108.63c.77.93.11,1.85-.08,2.72-.44,2.08-.38,2.29,1.73,3.22.29.96-.36.95-.97.87-.47-.07-.84-.47-1.33-.56-.15-.05-.28-.11-.41-.2-.62-1.07-1.75-1.95-1.25-3.43-.02-1.11.69-2.01,1.05-2.98.24-.65.48-1.22.44-1.9-.07-1.06.41-1.62,1.47-1.7-.1.3-.2.61-.3.91-.15.49-1.2,1.06.19,1.41.23.06.14.69-.21.97-.37.09-.55.28-.34.66Z"/>
          <path class="cls-2" d="m40.16,108.63c-.45-.35-.46-.76,0-1.04.26-.16.28.19.33.38-.01.11-.02.21-.03.32-.1.11-.2.23-.31.34Z"/>
          <path class="cls-2" d="m49.38,104.02c1.26-.75,1.26-.73,1.99.5.1.16.56.11.87.16-.16.66-.79.71-1.22.99-.26.24-.57.36-.93.33-.72-.07-1.23-.5-1.7-.98h0c.33-.34.66-.66.99-.99Z"/>
          <path class="cls-2" d="m50.04,105.66h.99c0,.11,0,.22,0,.33-.26.52-.17.96.34,1.26.18.11.54.19.4.4-.64.97-.3,2.09-.51,3.04-.27,1.22.17,1.52.98,1.77.61.19,1.19.26,1.09,1.1.03.91-.64,1.54-.96,2.31-.06.04-.13.09-.19.13-.16-.04-.27-.14-.34-.28-.03-.1-.09-.22-.06-.31.52-1.23.07-1.9-1.19-2.13-.37-.04.28-.98-.76-.68-.76.21-.5-.59-.13-1.01-.32-1.02-1,.05-1.54-.36.49-.46-.31-1.46.48-1.72.97-.33.67-1.07,1-1.62-1.22-.27-1.95.05-2.17,1.25-.06.34-.13.85-.68.7-.5-.14-.33-.58-.32-.96.04-1.1.68-1.75,1.58-2.22.65-.35,1.31-.69,1.98-.99Z"/>
          <path class="cls-2" d="m55.31,103.36c0-.28.08-.51.33-.66.12-.49.61-.79.67-1.31.21,0,.43-.01.64-.02.26,1.28-.03,2.39-.99,3.3,0-.11,0-.21,0-.32-.32-.27-.38-.7-.64-1Z"/>
          <path class="cls-2" d="m56.3,101.39c.33.72-.38.9-.67,1.31.06-.52-.21-1.21.67-1.31Z"/>
          <path class="cls-2" d="m55.31,103.36c.43.19.66.52.64,1-.91.11-.75-.46-.64-1Z"/>
          <path class="cls-2" d="m38.18,103.03c.18-.19.35-.41.56-.57.49-.36,1.24.12,1.56.61.45.7,0,.72-.41,1.02-.71.52-1.79.56-2.13,1.6-.04.11-.39.21-.55.17-.33-.08-.29-.38-.26-.67.09-.83.8-1.25,1.23-1.85-.11-.07-.15-.15-.11-.22.04-.07.08-.11.12-.11Z"/>
          <path class="cls-2" d="m38.18,103.03c0,.11,0,.22,0,.33-.74.02-1.49-.16-1.84.88-.19.58-.88.5-1.57.33.52-.76,1.44-1.11,1.6-2.1.13-.8.15-1.81,1.49-2.06-.68,1.04-.15,1.83.32,2.63Z"/>
          <path class="cls-2" d="m37.86,111.25c.1,1.23,1.15,2.09,1.31,3.3-1.62-.16-2.53-1.68-1.98-3.29l.02-.02c.22,0,.44,0,.65,0Z"/>
          <path class="cls-2" d="m34.88,101.02c.42-.69,1.06-1.08,2-1.69-.4,1.16-1.03,1.6-1.68,2.04-.13-.1-.32-.14-.33-.35Z"/>
          <path class="cls-2" d="m34.88,101.02c.11.12.22.24.33.35-.3.06-.36.72-.7.42-.21-.19.1-.58.38-.77Z"/>
          <path class="cls-2" d="m45.46,117.15c-.01-.21-.02-.41-.04-.62,1.51-.99,2.91-.07,4.35.23.15.04.29.09.44.14.7.29,1.55.27,2.09.93-1.63.52-3.21-.04-4.81-.26-.69-.09-1.36-.28-2.04-.43Z"/>
          <path class="cls-2" d="m52.3,117.84c-.8-.08-1.58-.22-2.27-.65.53-.63,1.2-1.07,1.98-1.32.12,0,.24,0,.36,0,0,.66.29,1.32-.07,1.97Z"/>
          <path class="cls-2" d="m52.01,115.87c-.38.86-1.11,1.2-1.98,1.32-.1,0-.21,0-.31-.02-.23-.89-1.21-.54-1.69-1.01.05-.24-.05-.31-.28-.25-.45-.34-.9-.69-.67-1.36.47-.04.98.1,1.38-.31-.05-.56-1.09-.33-.82-1.14.34-1.04,1.11-1.37,2.07-1.51-.02.26-.16.66-.05.75.48.4.54-.52,1.05-.41v1.3c.94.42,1.09,1.2.75,2.02-.32.78.51.3.56.61h0Z"/>
          <path class="cls-2" d="m48.06,115.87c.35.39.82.52,1.3.42.29-.06.57-.43.82-.01.3.5-.35.57-.46.89-1.4-.44-2.81-.8-4.3-.64h-.02c-.19-.23-.44-.44-.42-.79.16-.58,1.16-.4,1.1-1.19.33,0,.67,0,1,0,.33.44.65.87.97,1.31h0Z"/>
          <path class="cls-2" d="m45.1,115.86c.25.16.32.4.31.68-1.91.32-3.62-1.01-5.54-.7-.13-.43-.26-.85-.39-1.27.37.04.73-.35,1.1.24.4.65.97.59,1.24-.24.49.92,1.28,1.3,2.3,1.29.33-.22.66-.29.99,0Z"/>
          <path class="cls-2" d="m41.19,110.48c.13,1.11,2.6.33,1.68,2.2-.42.86-1.32-.23-1.86.34-.63-.86-.28-1.67.17-2.54Z"/>
          <path class="cls-2" d="m44.25,112.39c.47-1.15,1.54-1.62,2.09-1.26.9.6.41,1.55-.48,1.91-.17.07-.49-1.33-1.61-.65Z"/>
          <path class="cls-2" d="m45.1,115.86c-.33,0-.66,0-.99,0,.19-.39.44-.75.55-1.16.37-1.27.89-.68,1.42-.15.52,1.07-.65.88-.98,1.31Z"/>
          <path class="cls-2" d="m50.04,105.66c-.44.76-.96,1.37-1.98.99.08-.56.66-1.01.33-1.65.55.22,1.1.44,1.64.66Z"/>
          <path class="cls-2" d="m52.01,115.86c-.8.25-1.23-.05-.93-.84.29-.75,0-1.25-.38-1.79.27,0,.54.02.82,0,1.27-.11,1.65.23.8,1.39-.23.32-.21.82-.31,1.24Z"/>
          <path class="cls-2" d="m48.06,115.87c.05-.32.12-.63.54-.6.07,0,.2.13.19.17-.08.39-.42.38-.72.43h0Z"/>
        </g>
      </g>
    </g>
  </g>
</svg>